<?xml version="1.0" standalone="no"?>
<svg xmlns:xlink="http://www.w3.org/1999/xlink" id="wave" style="transform:rotate(0deg); transition: 0.3s" viewBox="0 0 1440 160" version="1.1" xmlns="http://www.w3.org/2000/svg"><defs><linearGradient id="sw-gradient-0" x1="0" x2="0" y1="1" y2="0"><stop stop-color="rgba(17, 94, 89, 1)" offset="0%"/><stop stop-color="rgba(106.101, 110.111, 109.851, 1)" offset="100%"/></linearGradient></defs><path style="transform:translate(0, 0px); opacity:1" fill="url(#sw-gradient-0)" d="M0,144L30,128C60,112,120,80,180,72C240,64,300,80,360,93.3C420,107,480,117,540,125.3C600,133,660,139,720,122.7C780,107,840,69,900,56C960,43,1020,53,1080,58.7C1140,64,1200,64,1260,69.3C1320,75,1380,85,1440,74.7C1500,64,1560,32,1620,16C1680,0,1740,0,1800,8C1860,16,1920,32,1980,48C2040,64,2100,80,2160,80C2220,80,2280,64,2340,72C2400,80,2460,112,2520,117.3C2580,123,2640,101,2700,85.3C2760,69,2820,59,2880,66.7C2940,75,3000,101,3060,96C3120,91,3180,53,3240,48C3300,43,3360,69,3420,72C3480,75,3540,53,3600,40C3660,27,3720,21,3780,16C3840,11,3900,5,3960,21.3C4020,37,4080,75,4140,74.7C4200,75,4260,37,4290,18.7L4320,0L4320,160L4290,160C4260,160,4200,160,4140,160C4080,160,4020,160,3960,160C3900,160,3840,160,3780,160C3720,160,3660,160,3600,160C3540,160,3480,160,3420,160C3360,160,3300,160,3240,160C3180,160,3120,160,3060,160C3000,160,2940,160,2880,160C2820,160,2760,160,2700,160C2640,160,2580,160,2520,160C2460,160,2400,160,2340,160C2280,160,2220,160,2160,160C2100,160,2040,160,1980,160C1920,160,1860,160,1800,160C1740,160,1680,160,1620,160C1560,160,1500,160,1440,160C1380,160,1320,160,1260,160C1200,160,1140,160,1080,160C1020,160,960,160,900,160C840,160,780,160,720,160C660,160,600,160,540,160C480,160,420,160,360,160C300,160,240,160,180,160C120,160,60,160,30,160L0,160Z"/><defs><linearGradient id="sw-gradient-1" x1="0" x2="0" y1="1" y2="0"><stop stop-color="rgba(17, 94, 89, 1)" offset="0%"/><stop stop-color="rgba(123.408, 151.093, 149.295, 1)" offset="100%"/></linearGradient></defs><path style="transform:translate(0, 50px); opacity:0.9" fill="url(#sw-gradient-1)" d="M0,128L30,125.3C60,123,120,117,180,114.7C240,112,300,112,360,106.7C420,101,480,91,540,93.3C600,96,660,112,720,98.7C780,85,840,43,900,29.3C960,16,1020,32,1080,48C1140,64,1200,80,1260,96C1320,112,1380,128,1440,112C1500,96,1560,48,1620,34.7C1680,21,1740,43,1800,45.3C1860,48,1920,32,1980,26.7C2040,21,2100,27,2160,24C2220,21,2280,11,2340,29.3C2400,48,2460,96,2520,114.7C2580,133,2640,123,2700,109.3C2760,96,2820,80,2880,61.3C2940,43,3000,21,3060,13.3C3120,5,3180,11,3240,21.3C3300,32,3360,48,3420,48C3480,48,3540,32,3600,24C3660,16,3720,16,3780,32C3840,48,3900,80,3960,101.3C4020,123,4080,133,4140,114.7C4200,96,4260,48,4290,24L4320,0L4320,160L4290,160C4260,160,4200,160,4140,160C4080,160,4020,160,3960,160C3900,160,3840,160,3780,160C3720,160,3660,160,3600,160C3540,160,3480,160,3420,160C3360,160,3300,160,3240,160C3180,160,3120,160,3060,160C3000,160,2940,160,2880,160C2820,160,2760,160,2700,160C2640,160,2580,160,2520,160C2460,160,2400,160,2340,160C2280,160,2220,160,2160,160C2100,160,2040,160,1980,160C1920,160,1860,160,1800,160C1740,160,1680,160,1620,160C1560,160,1500,160,1440,160C1380,160,1320,160,1260,160C1200,160,1140,160,1080,160C1020,160,960,160,900,160C840,160,780,160,720,160C660,160,600,160,540,160C480,160,420,160,360,160C300,160,240,160,180,160C120,160,60,160,30,160L0,160Z"/><defs><linearGradient id="sw-gradient-2" x1="0" x2="0" y1="1" y2="0"><stop stop-color="rgba(0, 0, 0, 1)" offset="0%"/><stop stop-color="rgba(17, 94, 89, 1)" offset="100%"/></linearGradient></defs><path style="transform:translate(0, 100px); opacity:0.8" fill="url(#sw-gradient-2)" d="M0,16L30,18.7C60,21,120,27,180,24C240,21,300,11,360,5.3C420,0,480,0,540,8C600,16,660,32,720,40C780,48,840,48,900,56C960,64,1020,80,1080,93.3C1140,107,1200,117,1260,114.7C1320,112,1380,96,1440,98.7C1500,101,1560,123,1620,125.3C1680,128,1740,112,1800,90.7C1860,69,1920,43,1980,42.7C2040,43,2100,69,2160,88C2220,107,2280,117,2340,114.7C2400,112,2460,96,2520,80C2580,64,2640,48,2700,48C2760,48,2820,64,2880,77.3C2940,91,3000,101,3060,112C3120,123,3180,133,3240,120C3300,107,3360,69,3420,53.3C3480,37,3540,43,3600,37.3C3660,32,3720,16,3780,24C3840,32,3900,64,3960,72C4020,80,4080,64,4140,48C4200,32,4260,16,4290,8L4320,0L4320,160L4290,160C4260,160,4200,160,4140,160C4080,160,4020,160,3960,160C3900,160,3840,160,3780,160C3720,160,3660,160,3600,160C3540,160,3480,160,3420,160C3360,160,3300,160,3240,160C3180,160,3120,160,3060,160C3000,160,2940,160,2880,160C2820,160,2760,160,2700,160C2640,160,2580,160,2520,160C2460,160,2400,160,2340,160C2280,160,2220,160,2160,160C2100,160,2040,160,1980,160C1920,160,1860,160,1800,160C1740,160,1680,160,1620,160C1560,160,1500,160,1440,160C1380,160,1320,160,1260,160C1200,160,1140,160,1080,160C1020,160,960,160,900,160C840,160,780,160,720,160C660,160,600,160,540,160C480,160,420,160,360,160C300,160,240,160,180,160C120,160,60,160,30,160L0,160Z"/></svg>