<?xml version="1.0" standalone="no"?>
<svg xmlns:xlink="http://www.w3.org/1999/xlink" id="wave" style="transform:rotate(0deg); transition: 0.3s" viewBox="0 0 1440 120" version="1.1" xmlns="http://www.w3.org/2000/svg"><defs><linearGradient id="sw-gradient-0" x1="0" x2="0" y1="1" y2="0"><stop stop-color="rgba(17, 94, 89, 1)" offset="0%"/><stop stop-color="rgba(106.101, 110.111, 109.851, 1)" offset="100%"/></linearGradient></defs><path style="transform:translate(0, 0px); opacity:1" fill="url(#sw-gradient-0)" d="M0,108L30,106C60,104,120,100,180,90C240,80,300,64,360,60C420,56,480,64,540,70C600,76,660,80,720,82C780,84,840,84,900,86C960,88,1020,92,1080,80C1140,68,1200,40,1260,26C1320,12,1380,12,1440,22C1500,32,1560,52,1620,54C1680,56,1740,40,1800,40C1860,40,1920,56,1980,62C2040,68,2100,64,2160,66C2220,68,2280,76,2340,84C2400,92,2460,100,2520,90C2580,80,2640,52,2700,36C2760,20,2820,16,2880,14C2940,12,3000,12,3060,12C3120,12,3180,12,3240,20C3300,28,3360,44,3420,54C3480,64,3540,68,3600,66C3660,64,3720,56,3780,44C3840,32,3900,16,3960,16C4020,16,4080,32,4140,50C4200,68,4260,88,4290,98L4320,108L4320,120L4290,120C4260,120,4200,120,4140,120C4080,120,4020,120,3960,120C3900,120,3840,120,3780,120C3720,120,3660,120,3600,120C3540,120,3480,120,3420,120C3360,120,3300,120,3240,120C3180,120,3120,120,3060,120C3000,120,2940,120,2880,120C2820,120,2760,120,2700,120C2640,120,2580,120,2520,120C2460,120,2400,120,2340,120C2280,120,2220,120,2160,120C2100,120,2040,120,1980,120C1920,120,1860,120,1800,120C1740,120,1680,120,1620,120C1560,120,1500,120,1440,120C1380,120,1320,120,1260,120C1200,120,1140,120,1080,120C1020,120,960,120,900,120C840,120,780,120,720,120C660,120,600,120,540,120C480,120,420,120,360,120C300,120,240,120,180,120C120,120,60,120,30,120L0,120Z"/><defs><linearGradient id="sw-gradient-1" x1="0" x2="0" y1="1" y2="0"><stop stop-color="rgba(17, 94, 89, 1)" offset="0%"/><stop stop-color="rgba(123.408, 151.093, 149.295, 1)" offset="100%"/></linearGradient></defs><path style="transform:translate(0, 50px); opacity:0.9" fill="url(#sw-gradient-1)" d="M0,24L30,34C60,44,120,64,180,64C240,64,300,44,360,40C420,36,480,48,540,52C600,56,660,52,720,48C780,44,840,40,900,38C960,36,1020,36,1080,42C1140,48,1200,60,1260,66C1320,72,1380,72,1440,60C1500,48,1560,24,1620,28C1680,32,1740,64,1800,68C1860,72,1920,48,1980,38C2040,28,2100,32,2160,32C2220,32,2280,28,2340,22C2400,16,2460,8,2520,22C2580,36,2640,72,2700,90C2760,108,2820,108,2880,90C2940,72,3000,36,3060,22C3120,8,3180,16,3240,20C3300,24,3360,24,3420,36C3480,48,3540,72,3600,76C3660,80,3720,64,3780,64C3840,64,3900,80,3960,76C4020,72,4080,48,4140,32C4200,16,4260,8,4290,4L4320,0L4320,120L4290,120C4260,120,4200,120,4140,120C4080,120,4020,120,3960,120C3900,120,3840,120,3780,120C3720,120,3660,120,3600,120C3540,120,3480,120,3420,120C3360,120,3300,120,3240,120C3180,120,3120,120,3060,120C3000,120,2940,120,2880,120C2820,120,2760,120,2700,120C2640,120,2580,120,2520,120C2460,120,2400,120,2340,120C2280,120,2220,120,2160,120C2100,120,2040,120,1980,120C1920,120,1860,120,1800,120C1740,120,1680,120,1620,120C1560,120,1500,120,1440,120C1380,120,1320,120,1260,120C1200,120,1140,120,1080,120C1020,120,960,120,900,120C840,120,780,120,720,120C660,120,600,120,540,120C480,120,420,120,360,120C300,120,240,120,180,120C120,120,60,120,30,120L0,120Z"/><defs><linearGradient id="sw-gradient-2" x1="0" x2="0" y1="1" y2="0"><stop stop-color="rgba(0, 0, 0, 1)" offset="0%"/><stop stop-color="rgba(17, 94, 89, 1)" offset="100%"/></linearGradient></defs><path style="transform:translate(0, 100px); opacity:0.8" fill="url(#sw-gradient-2)" d="M0,0L30,2C60,4,120,8,180,18C240,28,300,44,360,52C420,60,480,60,540,64C600,68,660,76,720,78C780,80,840,76,900,80C960,84,1020,96,1080,86C1140,76,1200,44,1260,40C1320,36,1380,60,1440,70C1500,80,1560,76,1620,76C1680,76,1740,80,1800,76C1860,72,1920,60,1980,58C2040,56,2100,64,2160,60C2220,56,2280,40,2340,32C2400,24,2460,24,2520,36C2580,48,2640,72,2700,72C2760,72,2820,48,2880,34C2940,20,3000,16,3060,16C3120,16,3180,20,3240,30C3300,40,3360,56,3420,62C3480,68,3540,64,3600,68C3660,72,3720,84,3780,78C3840,72,3900,48,3960,40C4020,32,4080,40,4140,46C4200,52,4260,56,4290,58L4320,60L4320,120L4290,120C4260,120,4200,120,4140,120C4080,120,4020,120,3960,120C3900,120,3840,120,3780,120C3720,120,3660,120,3600,120C3540,120,3480,120,3420,120C3360,120,3300,120,3240,120C3180,120,3120,120,3060,120C3000,120,2940,120,2880,120C2820,120,2760,120,2700,120C2640,120,2580,120,2520,120C2460,120,2400,120,2340,120C2280,120,2220,120,2160,120C2100,120,2040,120,1980,120C1920,120,1860,120,1800,120C1740,120,1680,120,1620,120C1560,120,1500,120,1440,120C1380,120,1320,120,1260,120C1200,120,1140,120,1080,120C1020,120,960,120,900,120C840,120,780,120,720,120C660,120,600,120,540,120C480,120,420,120,360,120C300,120,240,120,180,120C120,120,60,120,30,120L0,120Z"/></svg>