<svg xmlns="http://www.w3.org/2000/svg" version="1.1"
    xmlns:xlink="http://www.w3.org/1999/xlink"
    xmlns:svgjs="http://svgjs.dev/svgjs" viewBox="0 0 800 800">
    <defs>
        <linearGradient x1="50%" y1="0%" x2="50%" y2="100%" id="wwwhirl-grad">
            <stop stop-color="#0891b2ff" stop-opacity="1" offset="45%"></stop>
            <stop stop-color="#64748bff" stop-opacity="1" offset="100%"></stop>
        </linearGradient>
    </defs>
    <g stroke-width="1" stroke="url(#wwwhirl-grad)" fill="none"
        stroke-linecap="round">
        <path
            d="M-427.99999986648567 449.38545870553907C-399.25000023206076 405.46983426395514 -347.50000089009603 232.98421145722324 -290.0000016212464 238.59046138593607C-232.50000235239668 244.19671131464892 -209.50000264485675 473.9595208930637 -152.0000033760071 476.2954583633607C-94.5000041071574 478.63139583365773 -71.50000439961747 246.99983627900534 -14.00000513076776 249.80296124336178C43.499994138082 252.6060862077182 66.4999938456217 485.5457707457369 123.99999311447141 489.7504581922716C181.4999923833211 493.9551456388062 204.49999209086104 276.52608590355965 261.99999135971075 269.985460986728C319.49999062856034 263.4448360698964 342.4999903361004 437.7992088528659 399.99998960495 458.35545859147965C457.4999888737998 478.91170833009335 480.4999885813396 361.64764732118306 537.9999878501894 368.65545973207406C595.4999871190391 375.6632721429651 618.4999868265788 491.5257706696973 675.9999860954285 491.9929581637567C733.4999853642782 492.46014565781616 756.4999850718182 356.4151473877177 813.9999843406679 370.89795970355925C871.4999836095176 385.38077201940075 894.4999833170573 564.3135822441525 951.9999825859072 561.5104572797959C1009.4999818547567 558.7073323154395 1032.4999815622969 373.7945221667276 1089.9999808311466 357.4429598746484C1147.4999800999963 341.09139758256924 1199.249979441961 456.86045861048956 1227.9999790763857 483.0229582778162 "
            transform="rotate(46, 400, 400)"></path>
        <path
            d="M-409.99999995231633 448.31189627528954C-381.8750003099442 405.35095932156617 -331.2500009536743 236.6150239671545 -275.00000166893005 242.09939889741707C-218.7500023841858 247.58377382767964 -196.2500026702881 472.35173971960717 -140.00000338554383 474.63689594054995C-83.75000410079957 476.9220521614926 -61.25000438690182 250.32596129281092 -5.0000051021576155 253.0681487579422C51.24999418258676 255.8103362230735 73.7499938964844 483.6861145754831 129.99999318122866 487.7993957731801C186.24999246597292 491.912676970877 208.74999217987067 279.2103359255271 264.99999146461494 272.8118985068875C321.2499907493591 266.4134610882478 343.74999046325695 436.9775214194136 399.9999897480012 457.0868961637097C456.2499890327455 477.1962709080058 478.7499887466431 362.48142861668043 534.9999880313874 369.3368972795086C591.2499873161319 376.19236594233683 613.7499870300294 489.5361145010965 669.9999863147737 489.99314574528506C726.2499855995179 490.4501769894737 748.7499853134157 357.36267868176867 804.9999845981599 371.5306472516137C861.2499838829042 385.6986158214586 883.7499835968017 560.7415823456722 939.9999828815462 557.9993948805409C996.2499821662905 555.2572074154095 1018.7499818801882 374.3642409655826 1074.9999811649325 358.3681474189835C1131.2499804496765 342.37205387238436 1181.8749798059466 455.6243961823063 1209.9999794483188 481.218145856865 "
            transform="rotate(45, 400, 400)"></path>
        <path
            d="M-392.000000038147 447.2383338450401C-364.5000003878276 405.2320843791772 -315.0000010172526 240.2458364770858 -260.0000017166138 245.60833640889808C-205.00000241597493 250.97083634071038 -183.00000269571945 470.7439585461506 -128.00000339508057 472.9783335177391C-73.00000409444175 475.2127084893275 -51.000004374186176 253.65208630661652 3.9999949264526435 256.3333362725227C58.99999422709152 259.0145862384288 80.9999939473471 481.82645840522935 135.9999932479859 485.8483333540885C190.99999254862462 489.87020830294773 212.9999922688803 281.89458594749453 267.9999915695191 275.6383360270469C322.99999087015783 269.3820861065992 344.99999059041363 436.1558339859614 399.9999898910522 455.81833373593975C454.99998919169116 475.4808334859181 476.99998891194673 363.3152099121778 531.9999882125855 370.01833482694315C586.9999875132246 376.7214597417085 608.9999872334797 487.5464583324957 663.9999865341188 487.9933333268134C718.9999858347576 488.4402083211312 740.9999855550132 358.31020997581965 795.999984855652 372.16333479966806C850.9999841562908 386.0164596235164 872.9999838765464 557.1695824471919 927.9999831771852 554.4883324812859C982.999982477824 551.8070825153798 1004.9999821980796 374.93395976443776 1059.9999814987186 359.29333496331856C1114.9999807993572 343.6527101621994 1164.4999801699323 454.3883337541231 1191.9999798202516 479.41333343591384 "
            transform="rotate(44, 400, 400)"></path>
        <path
            d="M-374.0000001239777 446.1646951208453C-347.12500046571097 405.1131331428429 -298.7500010808309 243.87657269307178 -245.0000017642975 249.11719762643378C-191.25000244776407 254.3578225597958 -169.75000272115074 469.13610107874877 -116.0000034046173 471.3196948009829C-62.25000408808393 473.50328852321707 -40.750004361470474 256.9781350264768 12.999994955062903 259.5984474931578C66.74999427159634 262.2187599598388 88.24999399820967 479.9667259410303 141.99999331474305 483.8971946410518C195.74999263127643 487.8276633410733 217.24999235788982 284.5787596755167 270.9999916744232 278.464697253261C324.7499909909567 272.3506348310054 346.24999071757 435.3340702585638 399.99999003410346 454.54969501422454C453.74998935063684 473.7653197698852 475.24998907725023 364.14891491372987 528.9999883937837 370.6996960804324C582.7499877103172 377.2504772471349 604.2499874369305 485.5567258699497 657.9999867534639 485.99344461439654C711.7499860699972 486.4301633588434 733.2499857966106 359.2576649759253 786.999985113144 372.7959460537772C840.7499844296774 386.334227131629 862.2499841562908 553.5975062547665 915.9999834728242 550.9771937880855C969.7499827893575 548.3568813214044 991.2499825159712 375.50360226934754 1044.9999818325043 360.2184462137084C1098.749981149038 344.93329015806916 1147.124980533918 453.15219503199467 1173.9999801921847 477.60844472101735 "
            transform="rotate(43, 400, 400)"></path>
        <path
            d="M-356.0000002098084 445.09108691422864C-329.7500005435944 404.99421242408675 -282.5000011444092 247.5073394266359 -230.0000018119812 252.6260893615476C-177.50000247955322 257.74483929645936 -156.50000274658203 467.5282741289251 -104.0000034141541 469.6610866018049C-51.500004081726104 471.79389907468476 -30.500004348754885 260.3042142639152 21.999994983673105 262.86358923137107C74.49999431610115 265.42296419882695 95.49999404907226 478.10702399440925 147.9999933815002 481.9460864455931C200.49999271392824 485.78514889677683 221.49999244689945 287.262963921117 273.9999917793274 281.2910889970533C326.49999111175543 275.3192140729896 347.49999084472665 434.51233704874437 399.9999901771546 453.28108681008734C452.49998950958263 472.0498365714303 473.49998924255385 364.98265043286005 525.9999885749818 371.38108785149973C578.4999879074098 377.7795252701394 599.4999876403808 483.56702392498175 651.9999869728088 483.9935864195577C704.4999863052369 484.42014891413373 725.4999860382081 360.2051504936091 777.9999853706361 373.42858782546443C830.499984703064 386.6520251573197 851.4999844360352 550.025460579919 903.9999837684632 547.4660856124631C956.4999831008911 544.9067106450073 977.4999828338625 376.07327529183544 1029.9999821662905 361.14358798167626C1082.4999814987186 346.2139006715171 1129.7499808979035 451.91608682744425 1155.9999805641175 475.803586523699 "
            transform="rotate(42, 400, 400)"></path>
        <path
            d="M-338.0000002956391 444.01749396640093C-312.3750006214778 404.87530696411966 -266.25000120798745 251.13812141898904 -215.00000185966493 256.1349963554505C-163.75000251134236 261.1318712919119 -143.25000277201337 465.92046243789036 -92.00000342369083 468.00249366141594C-40.750004075368224 470.0845248849415 -20.250004336039183 263.63030876014267 30.999995012283364 266.1287462283734C82.24999436060597 268.6271836966041 102.74999409993495 476.2473373065773 153.99999344825744 479.9949935089234C205.24999279658005 483.7426497112695 225.7499925359091 289.9471834255063 276.9999918842316 284.1174959996346C328.2499912325542 278.2878085737629 348.7499909718832 433.69061909771403 399.9999903202058 452.0124938647393C451.2499896685283 470.3343686317646 471.74998940785736 365.8164012107793 522.99998875618 372.0624948813561C574.2499881045026 378.3085885519329 594.7499878438314 481.5773372388029 645.9999871921541 481.993743483508C697.2499865404766 482.4101497282131 717.7499862798056 361.15265127008195 768.9999856281281 374.0612448559407C820.2499849764506 386.9698384417994 840.7499847157796 546.4534301638607 891.9999840641024 543.9549926956299C943.2499834124249 541.4565552273992 963.7499831517539 376.6429635731124 1014.9999825000764 362.0687450084332C1066.249981848399 347.494526443754 1112.3749812618892 450.6799938816829 1137.9999809360506 473.9987435851697 "
            transform="rotate(41, 400, 400)"></path>
        <path
            d="M-320.00000038146976 442.9438933891788C-295.0000006993612 404.75639387475803 -250.00000127156576 254.76889578194766 -200.00000190734863 259.64389571995883C-150.0000025431315 264.51889565797 -130.00000279744467 464.3126431174611 -80.00000343322756 466.3438930916325C-30.00000406901046 468.37514306580374 -10.000004323323537 266.9563956269756 39.99999504089362 269.3938955959812C89.99999440511078 271.8313955649868 109.99999415079753 474.38764298935087 159.9999935150147 478.04389294285926C209.99999287923185 481.70014289636765 229.9999926249186 292.6313953005011 279.99999198913576 286.9438953728214C329.9999913533529 281.2563954451417 349.9999910990398 432.86889351728905 399.99999046325695 450.74389328999666C449.9999898274741 468.6188930627043 469.99998957316086 366.650144359304 519.9999889373781 372.743894281818C569.9999883015953 378.8376442043319 589.999988047282 479.58764292322945 639.9999874114991 479.9938929180637C689.999986775716 480.400142912898 709.9999865214031 362.10014441716027 759.9999858856202 374.6938942570224C809.9999852498372 387.28764409688466 829.9999849955243 542.8813921184078 879.9999843597413 540.4438921494022C929.9999837239584 538.0063921803967 949.9999834696455 377.21264422499485 999.9999828338625 362.99389440579563C1049.9999821980796 348.7751445865964 1094.999981625875 449.443893306527 1119.9999813079835 472.19389301724584 "
            transform="rotate(40, 400, 400)"></path>
        <path
            d="M-302.0000004673004 441.8703004413512C-277.6250007772446 404.63748841479094 -233.75000133514405 258.3996777743008 -185.00000195503236 263.1528027138617C-136.25000257492064 267.9059276534226 -116.75000282287598 462.7048314264265 -68.0000034427643 464.6853001512435C-19.25000406265258 466.6657688760605 0.24999568939210803 270.28249012320305 48.999995069503825 272.6590525929835C97.7499944496156 275.03561506276395 117.24999420166017 472.527956301519 165.99999358177183 476.09280000618963C214.74999296188355 479.6576437108603 234.24999271392824 295.3156148048904 282.99999209403995 289.7703023754027C331.74999147415167 284.224989945915 351.24999122619636 432.0471755662587 399.9999906063081 449.47530034464864C448.7499899864198 466.9034251230386 468.2499897384645 367.48389513722327 516.9999891185762 373.4253013116744C565.749988498688 379.3667074861255 585.2499882507325 477.59795623705054 633.9999876308442 477.994049982014C682.7499870109559 478.3901437269774 702.2499867630006 363.0476451936331 750.9999861431122 375.3265512874988C799.749985523224 387.6054573813644 819.2499852752687 539.3093617023495 867.9999846553803 536.9327992325691C916.7499840354922 534.5562367627886 936.2499837875368 377.78233250627187 984.9999831676485 363.91905143255264C1033.7499825477603 350.05577035883334 1077.6249819898608 448.20780036076576 1101.9999816799166 470.38905007871654 "
            transform="rotate(39, 400, 400)"></path>
        <path
            d="M-284.00000055313114 440.7967074935236C-260.250000855128 404.51858295482384 -217.50000139872236 262.030459766654 -170.0000020027161 266.6617097077646C-122.50000260670978 271.29295964887524 -103.50000284830728 461.0970197353918 -56.00000345230103 463.0267072108545C-8.500004056294756 464.95639468631725 10.499995702107753 273.60858461943053 57.999995098114084 275.9242095899858C105.49999449412041 278.23983456054117 124.49999425252275 470.6682696136871 171.99999364852897 474.14170706952C219.49999304453536 477.615144525353 238.49999280293787 297.9998343092798 285.99999219894414 292.59670937798404C333.4999915949504 287.1935844466883 352.4999913533529 431.2254576152284 399.9999907493592 448.2067073993006C447.4999901453655 465.1879571833728 466.499989903768 368.3176459151425 513.9999892997744 374.1067083415308C561.4999886957806 379.8957707679191 580.499988454183 475.6082695508717 627.9999878501892 475.99420704596423C675.4999872461956 476.38014454105684 694.4999870045981 363.99514597010597 741.9999864006043 375.959208317975C789.4999857966106 387.92327066584414 808.4999855550132 535.7373312862912 855.9999849510195 533.4217063157358C903.4999843470257 531.1060813451805 922.4999841054282 378.3520207875489 969.9999835014346 364.8442084593096C1017.4999828974408 351.3363961310703 1060.2499823538465 446.9717074150044 1083.9999820518497 468.5842071401873 "
            transform="rotate(38, 400, 400)"></path>
        <path
            d="M-266.0000006389618 439.723114545696C-242.8750009330114 404.39967749485675 -201.25000146230065 265.66124175900717 -155.0000020503998 270.1706167016675C-108.75000263849896 274.67999164432786 -90.25000287373862 459.48920804435716 -44.000003461837764 461.3681142704656C2.2499959500630666 463.247020496574 20.749995714823456 276.934679115658 66.99999512672429 279.18936658698817C113.24999453862512 281.44405405831833 131.74999430338545 468.80858292585515 177.99999371528622 472.1906141328504C224.24999312718705 475.5726453398456 242.7499928919474 300.6840538136691 288.99999230384833 295.4231163805654C335.24999171574916 290.16217894746165 353.7499914805095 430.403739664198 399.9999908924103 446.9381144539525C446.24999030431115 463.47248924370706 464.7499900690715 369.15139669306177 510.9999894809723 374.7881153713872C557.2499888928733 380.4248340497126 575.7499886576335 473.6185828646928 621.9999880695343 473.9943641099145C668.2499874814351 474.37014535513623 686.7499872461956 364.9426467465788 732.9999866580963 376.59186534845134C779.2499860699972 388.24108395032385 797.7499858347576 532.1653008702328 843.9999852466583 529.9106133989026C890.2499846585592 527.6559259275725 908.7499844233198 378.92170906882586 954.9999838352205 365.76936548606653C1001.2499832471212 352.61702190330726 1042.874982717832 445.73561446924305 1065.9999824237825 466.779364201658 "
            transform="rotate(37, 400, 400)"></path>
        <path
            d="M-248.00000072479253 438.6495063390793C-225.5000010108948 404.2807567761006 -185.00000152587893 269.29200849257126 -140.0000020980835 273.6795084367813C-95.00000267028807 278.06700838099135 -77.00000289916994 457.8813810945334 -32.0000034713745 459.7095060712876C12.99999595642089 461.53763104804176 30.9999957275391 280.2607583530964 75.99999515533449 282.45450832520146C120.99999458312993 284.6482582973065 138.99999435424803 466.94888097923416 183.99999378204348 470.2395059373917C228.99999320983898 473.53013089554923 246.99999298095713 303.36825805926935 291.9999924087525 298.2495081243576C336.9999918365479 293.1307581894459 354.99999160766606 429.58200645437853 399.99999103546145 445.6695062498154C444.99999046325695 461.75700604525224 462.9999902343751 369.98513221219196 507.9999896621705 375.4695071424546C552.999989089966 380.95388207271714 570.999988861084 471.6288809197249 615.9999882888795 471.9945059150757C660.9999877166748 472.3601309104266 678.999987487793 365.8901322642626 723.9999869155886 377.2245071201386C768.9999863433839 388.55888197601456 786.9999861145022 528.5932551953854 831.9999855422975 526.3995052232804C876.9999849700928 524.2057552511753 894.9999847412112 379.49138209131377 939.9999841690064 366.6945072540344C984.9999835968017 353.89763241675513 1025.4999830818178 444.49950626469274 1047.9999827957156 464.9745060043397 "
            transform="rotate(36, 400, 400)"></path>
        <path
            d="M-230.0000008106232 437.5759439088298C-208.12500108877822 404.1618818337116 -168.7500015894572 272.9228210025026 -125.00000214576721 277.1884459482623C-81.25000270207721 281.4540708940221 -63.75000292460123 456.2735999210769 -20.000003480911232 458.05094364847673C23.749995962778712 459.8282873758766 41.24999574025475 283.586883366902 84.99999518394469 285.7196958397819C128.74999462763475 287.85250831266177 146.24999440511067 465.08922480898036 189.99999384880067 468.2884435183002C233.74999329249067 471.48766222762004 251.24999306996665 306.0525080812368 294.9999925136567 301.07594564451705C338.74999195734665 296.09938320779736 356.24999173482274 428.7603190209263 399.9999911785126 444.40094382204546C443.74999062220263 460.0415686231646 461.2499903996786 370.81891350768933 504.99998984336867 376.15094468988906C548.7499892870587 381.4829758720888 566.2499890645346 469.6392247511241 609.9999885082244 469.9946934966041C653.7499879519146 470.35016224208414 671.2499877293905 366.8376635583136 714.9999871730805 377.85719466819296C758.7499866167705 388.8767257780724 776.2499863942467 525.0212552969052 819.9999858379365 522.8884428240253C863.7499852816266 520.7556303511454 881.2499850591025 380.06110089016886 924.9999845027926 367.61969479836955C968.7499839464824 355.1782887065702 1008.1249834458035 443.2634438365095 1029.9999831676485 463.1696935833885 "
            transform="rotate(35, 400, 400)"></path>
        <path
            d="M-212.00000089645388 436.50228992584596C-190.7500011666616 404.0429153385883 -152.5000016530355 276.5535419596995 -110.00000219345094 280.69729190700895C-67.50000273386635 284.84104185431846 -50.50000295003255 454.6657271948859 -8.000003490447966 456.3922896729315C34.499995969136535 458.11885215097715 51.49999575297039 286.9129168279732 93.99999521255495 288.984791801628C136.49999467213956 291.0566667752827 153.49999445597336 463.22947708599224 195.99999391555792 466.3372895464743C238.49999337514237 469.4451020069564 255.49999315897617 308.73666655046986 297.9999926185608 303.90229161194213C340.4999920781454 299.0679166734144 357.4999918619792 427.9385400347397 399.9999913215637 443.13228984154114C442.4999907811484 458.32603964834266 459.4999905649821 371.6526032504524 501.9999900245667 376.8322906845892C544.4999894841515 382.0119781187261 561.499989267985 467.649477029789 603.9999887275696 467.9947895253981C646.4999881871541 468.3401020210073 663.4999879709881 367.7851032996302 705.9999874305727 378.489790663513C748.4999868901572 389.1944780273959 765.4999866739909 521.4491638456907 807.9999861335755 519.3772888720358C850.4999855931601 517.3054138983812 867.4999853769941 380.6307281362896 909.9999848365785 368.54479078997025C952.4999842961631 356.4588534436509 990.749983809789 442.02728985559196 1011.9999835395815 461.36478960970294 "
            transform="rotate(34, 400, 400)"></path>
        <path
            d="M-194.00000098228458 435.4287274955965C-173.375001244545 403.9240403961993 -136.25000171661378 280.18435446963076 -95.00000224113467 284.20622941848995C-53.75000276565552 288.2281043673492 -37.25000297546387 453.0579460214294 3.999996500015243 454.7337272501207C45.24999597549436 456.40950847881203 61.749995765686094 290.23904184177877 102.99999524116521 292.2499793162084C144.24999471664432 294.260916790638 160.74999450683595 461.3698209157384 201.99999398231506 464.3862271273828C243.24999345779423 467.40263333902726 259.7499932479859 311.4209165724373 300.99999272346497 306.7287291321016C342.24999219894414 302.0365416917658 358.74999198913576 427.1168526012874 399.99999146461494 441.86372741377124C441.2499909400941 456.61060222625497 457.74999073028573 372.48638454594976 498.9999902057649 377.51372823202377C540.2499896812441 382.54107191809777 556.7499894714356 465.6598208611882 597.9999889469148 465.9949771069265C639.2499884223938 466.3301333526648 655.7499882125855 368.73263459368115 696.9999876880646 379.12247821156745C738.2499871635438 389.51232182945375 754.7499869537354 517.8771639472104 795.9999864292145 515.8662264727808C837.2499859046939 513.8552889983512 853.7499856948855 381.2004469351447 894.9999851703644 369.4699783343053C936.2499846458436 357.739509733466 973.3749841737749 440.7912274274088 993.9999839115144 459.55997718875176 "
            transform="rotate(33, 400, 400)"></path>
        <path
            d="M-176.00000106811527 434.3551040301908C-156.0000013224284 403.8051044186541 -120.00000178019206 283.8151059444058 -80.00000228881837 287.7151058948147C-40.000002797444665 291.61510584522364 -24.00000300089519 451.45010381281656 15.99999649047848 453.07510379215364C55.99999598185218 454.7001037714907 71.99999577840174 293.56510582042813 111.99999526977541 295.5151057956326C151.99999476114914 297.46510577083706 167.99999455769859 459.5101037103284 207.99999404907226 462.4351036731351C247.99999354044598 465.36010363594175 263.9999933369955 314.10510555924856 303.99999282836916 309.5551056171048C343.9999923197429 305.00510567496104 359.99999211629233 426.29510413267894 399.99999160766606 440.59510395084504C439.9999910990398 454.89510376901114 455.99999089558924 373.3201048062909 495.99999038696296 378.19510474430206C535.9999898783367 383.07010468231323 551.999989674886 463.67010365743124 591.9999891662599 463.99510365329866C631.9999886576335 464.3201036491661 647.999988454183 369.6801048525759 687.9999879455567 379.75510472446564C727.9999874369304 389.83010459635534 743.9999872334798 514.3051030135739 783.9999867248537 512.3551030383694C823.9999862162272 510.40510306316503 839.9999860127768 381.77010469884357 879.9999855041503 370.3951048434842C919.9999849955243 359.0201049881248 955.9999845377606 439.5551039640693 975.9999842834475 457.75510373264433 "
            transform="rotate(32, 400, 400)"></path>
        <path
            d="M-158.00000115394596 433.28152634115213C-138.62500140031182 403.68621421747605 -103.75000184377036 287.445903195548 -65.00000233650209 291.22402814750666C-26.250002829233807 295.0021530994653 -10.750003026326482 449.84230738057096 27.999996480941746 451.4165261105537C66.74999598821 452.9907448405365 82.24999579111739 296.8912155754447 120.99999529838561 298.780278051424C159.74999480565396 300.66934052740334 175.24999460856117 457.6504322812855 213.9999941158295 460.4840259952545C252.7499936230978 463.3176197092235 268.2499934260051 316.78934032242694 306.99999293327335 312.38152787847514C345.74999244054163 307.9737154345234 361.249992243449 425.4734014404376 399.9999917507173 439.32652626428603C438.74999125798547 453.1796510881344 454.24999106089285 374.1538708429992 492.99999056816114 378.87652703294754C531.7499900754294 383.5991832228958 547.2499898783367 461.68043223004145 585.9999893856049 461.995275976038C624.7499888928731 462.31011972203453 640.2499886957805 370.6276208878378 678.9999882030488 380.387777013731C717.7499877103171 390.1479331396242 733.2499875132244 510.7330878563047 771.9999870204927 508.8440253803253C810.7499865277609 506.95496290434596 826.2499863306682 382.3398082389096 864.9999858379365 371.3202771290302C903.7499853452048 360.3007460191508 938.6249849017463 438.31902627709707 957.9999846553803 455.9502760529041 "
            transform="rotate(31, 400, 400)"></path>
        <path
            d="M-140.00000123977665 432.2079181345355C-121.25000147819522 403.5672934987199 -87.50000190734863 291.07666992911214 -50.00000238418579 294.7329198826205C-12.50000286102295 298.3891698361289 2.499996948242199 448.2344804307472 39.99999647140501 449.75791791137567C77.49999599456783 451.28135539200423 92.49999580383303 300.2172948128831 129.99999532699587 302.04541978963726C167.4999948501587 303.87354476639143 182.4999946594238 455.79073033466454 219.9999941825867 458.5329177997958C257.49999370574955 461.2751052649271 272.49999351501464 319.4735445680272 309.9999930381775 315.2079196222674C347.4999925613404 310.94229467650763 362.49999237060547 424.65166823061816 399.9999918937684 438.0579180601489C437.49999141693127 451.46416788967963 452.49999122619636 374.9876063621294 489.9999907493592 379.5579188040149C527.4999902725222 384.12823124590034 542.4999900817871 459.69073028507347 579.99998960495 459.9954177811992C617.4999891281128 460.30010527732486 632.4999889373779 371.5751064055216 669.9999884605409 381.0204187854182C707.4999879837036 390.4657311653149 722.4999877929688 507.1610421814572 759.9999873161316 505.33291720470305C797.4999868392945 503.5047922279489 812.4999866485597 382.90948126139756 849.9999861717224 372.2454188969981C887.4999856948855 361.58135653259865 921.249985265732 437.0829180725467 939.9999850273134 454.1454178555858 "
            transform="rotate(30, 400, 400)"></path>
        <path
            d="M-122.00000132560733 431.1343251867079C-103.87500155607862 403.4483880387528 -71.25000197092695 294.7074519214653 -35.00000243186952 298.2418268765234C1.2499971071879088 301.7762018315815 15.749996922810851 446.62666873971256 51.99999646186828 448.09932497098674C88.2499960009257 449.571981202261 102.74999581654868 303.5433893091105 138.99999535560613 305.31057678663956C175.24999489466353 307.07776426416865 189.7499947102865 453.9310436468326 225.9999942493439 456.58182486312614C262.2499937884013 459.2326060794197 276.74999360402427 322.1577640724165 312.99999314308167 318.03432662484875C349.249992682139 313.910889177281 363.74999249776215 423.8299502795878 399.99999203681955 436.7893251148008C436.24999157587695 449.7486999500138 450.74999139149986 375.82135714004863 486.9999909305574 380.23932583387125C523.2499904696149 384.6572945276939 537.7499902852377 457.70104359889456 573.9999898242951 457.99557484514946C610.2499893633525 458.29010609140425 624.7499891789754 372.52260718199443 660.9999887180328 381.6530758158945C697.2499882570904 390.7835444497946 711.7499880727132 503.58901176539894 747.9999876117706 501.82182428786984C784.249987150828 500.05463681034075 798.7499869664512 383.4791695426745 834.9999865055086 373.1705759237551C871.249986044566 362.86198230483564 903.8749856297177 435.84682512678535 921.9999853992463 452.3405749170565 "
            transform="rotate(29, 400, 400)"></path>
        <path
            d="M-104.000001411438 430.06071698009123C-86.50000163396201 403.32946731999664 -55.00000203450523 298.3382186550294 -20.000002479553245 301.75071861163724C14.999997075398767 305.16321856824504 28.999996897379532 445.0188417898888 63.999996452331544 446.44071677180875C98.99999600728353 447.8625917537287 112.99999582926432 306.86946854654894 147.99999538421633 308.57571852485285C182.99999493916835 310.28196850315675 196.99999476114914 452.07134170021163 231.99999431610104 454.6307166676675C266.9999938710531 457.1900916351234 280.9999936930339 324.84196831801677 315.99999324798586 320.860718368641C350.99999280293787 316.8794684192652 364.9999926249186 423.0082170697684 399.9999921798707 435.52071691066374C434.99999173482263 448.03321675155905 448.9999915568035 376.6550926591789 483.99999111175543 380.9207176049386C518.9999906667075 385.1863425506984 532.9999904886881 455.71134165392664 567.9999900436402 455.99571665031067C602.9999895985922 456.28009164669464 616.999989420573 373.4700926996782 651.999988975525 382.28571758758176C686.9999885304769 391.10134247548524 700.9999883524576 500.0169660905515 735.9999879074097 498.31071611224763C770.9999874623618 496.6044661339437 784.9999872843425 384.04884256516243 819.9999868392945 374.095717691723C854.9999863942465 364.1425928182835 886.4999859937034 434.61071692223493 903.9999857711794 450.53571671973816 "
            transform="rotate(28, 400, 400)"></path>
        <path
            d="M-86.0000014972687 428.9871545498417C-69.12500171184541 403.21059237760767 -38.7500020980835 301.96903116496065 -5.000002527236944 305.25965612311825C28.749997043609625 308.5502810812758 42.24999687194824 443.4110606164323 75.99999644279478 444.7821543489979C109.7499960136413 446.15324808156356 123.24999584198002 310.1955935603545 156.9999954128266 311.8409060394333C190.74999498367316 313.4862185185121 204.24999481201172 450.21168552995783 237.9999943828583 452.67965424857596C271.74999395370486 455.14762296719414 285.2499937820435 327.5262183399842 318.99999335289004 323.6871558888004C352.7499929237366 319.8480934376166 366.2499927520753 422.18652963631615 399.9999923229218 434.2521544828938C433.7499918937684 446.3177793294714 447.249991722107 377.48887395467625 480.9999912929536 381.60215515237314C514.7499908638002 385.71543635007004 528.2499906921387 453.7216854853259 561.9999902629853 453.995904231839C595.7499898338318 454.27012297835216 609.2499896621705 374.4176239937292 642.999989233017 382.91840513563614C676.7499888038635 391.41918627754313 690.2499886322023 496.44496619207126 723.9999882030488 494.7996537129925C757.7499877738953 493.1543412339137 771.249987602234 384.6185613640175 804.9999871730805 375.02090523605807C838.749986743927 365.42324910809856 869.124986357689 433.37465449405175 885.9999861431124 448.730904298787 "
            transform="rotate(27, 400, 400)"></path>
        <path
            d="M-68.00000158309939 427.91355778731685C-51.75000178972883 403.0916831029433 -22.500002161661797 305.5998093426166 9.999997425079329 308.76855930232387C42.49999701182048 311.9373092620311 55.49999684651692 441.80324511070035 87.99999643325805 443.1235575939117C120.4999960199992 444.44387007712305 133.4999958546956 313.5216842418847 165.9999954414368 315.10605922173835C198.49999502817798 316.690434201592 211.49999486287436 448.3519950274287 243.99999444961549 450.7285574972091C276.4999940363566 453.10511996698955 289.4999938710531 330.2104340296763 321.99999345779423 326.5135590766845C354.49999304453536 322.8166841236927 367.4999928792318 421.3648078705885 399.9999924659729 432.98355772284845C432.4999920527141 444.6023075751084 445.4999918874105 378.32262091789823 477.99999147415167 382.2835583675323C510.49999106089285 386.24449581716635 523.4999908955892 451.7319949844498 555.9999904823303 451.99605748109207C588.4999900690715 452.26011997773435 601.499989903768 375.3651209555048 633.9999894905092 383.5510583514152C666.4999890772502 391.73699574732564 679.4999889119467 492.87293196131566 711.9999884986878 491.2885569814621C744.499988085429 489.7041820016084 757.4999879201255 385.1882458305973 789.9999875068665 375.94605844811775C822.4999870936077 366.7038710656383 851.7499867216748 432.1385577335932 867.9999865150453 446.9260575455604 "
            transform="rotate(26, 400, 400)"></path>
        <path
            d="M-50.00000166893008 426.83994958070014C-34.37500186761221 402.97276238418715 -6.250002225240081 309.2305760761807 24.99999737739563 312.2774510374377C56.24999698003134 315.32432599869463 68.7499968210856 440.19541816087656 99.99999642372131 441.46494939473365C131.249996026357 442.73448062859075 143.74999586741131 316.84776347932313 174.999995470047 318.37120095995164C206.24999507268274 319.89463844058014 218.749994913737 446.4922930808077 249.99999451637268 448.77744930175044C281.24999411900836 451.06260552269316 293.7499939600627 332.8946382752766 324.9999935626984 329.33995082047676C356.2499931653341 325.78526336567694 368.7499930063884 420.5430746607691 399.9999926090241 431.7149495187113C431.2499922116598 442.8868243766536 443.7499920527141 379.1563564370284 474.99999165534973 382.96495013859965C506.2499912579856 386.7735438401709 518.7499910990398 449.7422930394818 549.9999907016754 449.9961992862532C581.2499903043112 450.2501055330247 593.7499901453655 376.31260647318857 624.9999897480011 384.1837001231024C656.2499893506368 392.0547937730163 668.7499891916912 489.3008862864683 699.9999887943269 487.77744880583975C731.2499883969625 486.2540113252113 743.7499882380168 385.7579188530852 774.9999878406526 376.87120021608564C806.2499874432882 367.98448157908615 834.3749870856605 430.90244952904277 849.9999868869783 445.12119934824204 "
            transform="rotate(25, 400, 400)"></path>
        <path
            d="M-32.00000175476077 425.7663413740835C-17.000001945495626 402.853841665431 9.999997711181635 312.86134280974477 39.9999973297119 315.7863427725515C69.9999969482422 318.7113427353582 81.99999679565428 438.5875912110529 111.99999641418458 439.80634119555566C141.99999603271485 441.02509118005844 153.999995880127 320.17384271676156 183.99999549865726 321.63634269816487C213.9999951171875 323.09884267956824 225.99999496459964 444.63259113418667 255.99999458312988 446.8263411062917C285.9999942016601 449.0200910783967 297.9999940490723 335.57884252087683 327.9999936676026 332.16634256426903C357.99999328613285 328.7538426076612 369.999993133545 419.72134145094964 399.99999275207523 430.44634131457417C429.99999237060547 441.17134117819876 441.9999922180176 379.9900919561586 471.9999918365479 383.64634190966694C501.9999914550783 387.30259186317534 513.9999913024902 447.75259109451383 543.9999909210205 447.99634109141437C573.9999905395508 448.240091088315 585.999990386963 377.2600919908723 615.9999900054933 384.8163418947896C645.9999896240234 392.37259179870694 657.9999894714356 485.72884061162085 687.999989089966 484.2663406302175C717.9999887084962 482.8038406488141 729.9999885559083 386.3275918755731 759.9999881744386 377.7963419840536C789.9999877929688 369.265092092534 816.999987449646 429.6663413244924 831.9999872589112 443.3163411509237 "
            transform="rotate(24, 400, 400)"></path>
        <path
            d="M-14.000001840591452 424.69274079686136C0.3749979766209748 402.73492857606936 26.24999764760335 316.4921171727034 54.999997282028176 319.29524213705986C83.74999691645303 322.0983671014163 95.24999677022299 436.9797718906236 123.99999640464782 438.14774062577214C152.74999603907267 439.31570936092066 164.24999589284263 323.49992958359445 192.99999552726752 324.9014920657727C221.74999516169237 326.30305454795086 233.24999501546222 442.77289681696027 261.99999464988707 444.8752405402276C290.7499942843119 446.9775842634949 302.2499941380819 338.2630543958716 330.99999377250674 334.9927419374558C359.74999340693154 331.72242947904 371.24999326070156 418.8996158705247 399.99999289512635 429.1777407398316C428.74999252955126 439.45586560913847 440.2499923833211 380.8238351046833 468.9999920177461 384.32774131012883C497.74999165217093 387.83164751557433 509.2499915059408 445.76289677894044 537.9999911403656 445.99649052597016C566.7499907747905 446.2300842729999 578.2499906285605 378.2075851379507 606.9999902629853 385.44899129587145C635.7499898974102 392.6903974537922 647.24998975118 482.15680256616804 675.999989385605 480.75524008398975C704.7499890200297 479.35367760181157 716.2499888737998 386.8972725274556 744.9999885082246 378.721491381416C773.7499881426495 370.5457102353764 799.6249878136318 428.4302407493366 813.9999876308442 441.5114905829999 "
            transform="rotate(23, 400, 400)"></path>
        <path
            d="M4.000001888275122 423.6191707372173C17.75000171343484 402.61604600428586 42.50000139872233 320.1229220532402 70.00000104904174 322.80417201914634C97.50000069936118 325.4854219850524 108.50000055948891 435.3719830877726 136.00000020980835 436.4891705735668C163.49999986012776 437.606358059361 174.49999972025554 326.8260469680055 201.99999937057498 328.16667195095863C229.4999990208944 329.5072969339117 240.49999888102218 440.91323301731194 267.9999985313416 442.9241704917415C295.49999818166094 444.93510796617113 306.4999980417888 340.94729678844453 333.9999976921082 337.8191718282207C361.49999734242755 334.6910468679969 372.49999720255545 418.07792080767797 399.99999685287474 427.90917068266714C427.4999965031942 437.7404205576563 438.499996363322 381.65760877078617 465.9999960136414 385.00917122816884C493.49999566396093 388.3607336855515 504.4999955240885 443.7732329809451 531.999995174408 443.99667047810397C559.4999948247274 444.22010797526286 570.4999946848552 379.15510880260706 597.9999943351746 386.0816712145313C625.499993985494 393.0082336264555 636.4999938456218 478.58479503829324 663.9999934959412 477.2441700553402C691.4999931462606 475.90354507238715 702.4999930063884 387.46698369691615 729.999992656708 379.64667129635654C757.4999923070272 371.82635889579694 782.2499919923148 427.1941706917588 795.9999918174744 439.7066705326542 "
            transform="rotate(22, 400, 400)"></path>
        <path
            d="M22.000001802444437 422.5455549012061C35.12500163555144 402.4971176561352 58.750001335144034 323.75368115740974 85.00000100135803 326.3130561248656C111.25000066757201 328.87243109232145 121.75000053405762 433.76414850855434 148.0000002002716 434.8305547449943C174.24999986648558 435.8969609814342 184.7499997329712 330.1521185760494 210.99999939918519 331.43180605977733C237.2499990653992 332.71149354350524 247.74999893188476 439.0535234412964 273.9999985980987 440.97305466688834C300.24999826431275 442.8925858924802 310.74999813079836 343.6314934046503 336.9999977970123 340.64555594261844C363.24999746322635 337.6596184805866 373.74999732971196 417.256179968464 399.9999969959259 426.64055484913547C426.24999666213995 436.02492972980696 436.74999652862556 382.4913366605218 462.9999961948395 385.69055536984166C489.24999586105355 388.8897740791615 499.74999572753904 441.7835234065827 525.999995393753 441.99680465387064C552.2499950599671 442.21008590115866 562.7499949264527 380.1025866908964 588.9999945926667 386.714305356824C615.2499942588806 393.32602402275165 625.7499941253662 475.0127417340513 651.9999937915802 473.73305425032333C678.2499934577942 472.4533667665954 688.7499933242799 388.0366490900095 714.9999929904939 380.57180543492996C741.249992656708 373.10696177985034 764.8749923563004 425.9580548578139 777.9999921894074 437.9018047059413 "
            transform="rotate(21, 400, 400)"></path>
        <path
            d="M40.00000171661375 421.47195432398394C52.50000155766804 402.37820456677355 75.00000127156575 327.38445552036836 100.00000095367432 329.821955489374C125.0000006357829 332.25945545837953 135.0000005086263 432.1563291881251 160.00000019073485 433.1719541752108C184.9999998728434 434.1875791622964 194.99999974568686 333.4782054428823 219.99999942779544 334.69695542738515C244.99999910990402 335.9157054118879 254.9999989827474 437.19382912406996 279.999998664856 439.02195410082413C304.99999834696456 440.85007907757836 314.99999821980794 346.31570527964504 339.9999979019165 343.47195531580525C364.9999975840251 340.6282053519654 374.9999974568685 416.43445438803906 399.9999971389771 425.37195427439286C424.9999968210857 434.30945416074667 434.99999669392906 383.32507980904654 459.9999963760377 386.37195477030355C484.9999960581463 389.4188297315605 494.9999959309896 439.79382909100923 519.9999956130982 439.9969540884264C544.9999952952066 440.2000790858435 554.9999951680502 381.05007983797464 579.9999948501587 387.34695475790573C604.9999945322672 393.64382967783683 614.9999944051108 471.44070368859843 639.9999940872193 470.22195370409565C664.9999937693278 469.0032037195929 674.9999936421714 388.60632974189195 699.9999933242799 381.4969548322924C724.9999930063884 374.38757992269274 747.4999927202862 424.72195428265803 759.9999925613404 436.09695413801745 "
            transform="rotate(20, 400, 400)"></path>
        <path
            d="M58.00000163078306 420.3983690055509C69.87500147978463 402.259306736201 91.25000120798745 331.01524514211604 115.00000090599059 333.3308701126714C138.75000060399373 335.6464950832267 148.25000048319498 430.54852512648495 172.00000018119812 431.5133688642163C195.74999987920125 432.4782126019477 205.2499997584025 336.8043075685043 228.99999945640567 337.962120053782C252.74999915440884 339.1199325390596 262.24999903361004 435.33415006563257 285.9999987316131 437.07086879354904C309.7499984296163 438.80758752146556 319.24999830881757 348.99993241342895 342.9999980068207 346.2983699477811C366.74999770482384 343.5968074821332 376.2499975840251 415.61274406640325 399.99999728202823 424.1033689584394C423.74999698003137 432.5939938504755 433.2499968592326 384.1588382163603 456.9999965572358 387.05336942955444C480.74999625523895 389.9479006427486 490.24999613444015 437.8041500342249 513.9999958324432 437.9971187817712C537.7499955304464 438.19008752931745 547.2499954096477 381.9975882438421 570.9999951076508 387.9796194177766C594.749994805654 393.96165059171113 604.2499946848552 467.8686809019347 627.9999943828584 466.710868416657C651.7499940808615 465.55305593137933 661.2499939600627 389.1760256525635 684.9999936580659 382.42211948844385C708.749993356069 375.6682133243242 730.1249930842719 423.48586896629126 741.9999929332735 434.29211882888274 "
            transform="rotate(19, 400, 400)"></path>
        <path
            d="M76.00000154495237 419.3247836871178C87.25000140190123 402.1404089056284 107.50000114440917 334.6460347638638 130.00000085830686 336.8397847359688C152.5000005722046 339.03353470807383 161.50000045776366 428.94072106484487 184.00000017166138 429.8547835532219C206.49999988555908 430.768846041599 215.49999977111818 340.13040969412634 237.99999948501588 341.22728468017885C260.4999991989136 342.32415966623137 269.4999990844726 433.47447100719523 291.99999879837037 435.11978348627395C314.4999985122681 436.76509596535277 323.4999983978272 351.6841595472128 345.9999981117249 349.1247845797569C368.4999978256226 346.5654096123011 377.49999771118166 414.7910337447674 399.99999742507936 422.83478364248583C422.4999971389771 430.8785335402042 431.4999970245362 384.9925966236741 453.9999967384339 387.7347840888054C476.49999645233163 390.47697155393666 485.49999633789065 435.8144709774406 507.9999960517884 435.997283475116C530.499995765686 436.18009597279143 539.4999956512452 382.9450966497094 561.9999953651429 388.6122840776474C584.4999950790406 394.2794715055854 593.4999949645998 464.2966581152708 615.9999946784974 463.1997831292183C638.499994392395 462.1029081431658 647.4999942779542 389.745721563235 669.9999939918519 383.34728414459533C692.4999937057495 376.9488467259557 712.7499934482576 422.2497836499245 723.9999933052064 432.48728351974796 "
            transform="rotate(18, 400, 400)"></path>
        <path
            d="M94.00000145912168 418.25117166580384C104.62500132401783 402.021484372175 123.75000108083088 338.2767976827306 145.00000081062316 340.34867265638536C166.25000054041544 342.4205476300401 174.75000043233234 427.3328903003238 196.00000016212465 428.1961715393466C217.2499998919169 429.0594527783694 225.74999978383383 343.45648511686744 246.9999995136261 344.4924226036948C268.2499992434184 345.5283600905222 276.7499991353353 431.614765245877 297.9999988651276 433.168671476118C319.2499985949198 434.72257770635906 327.7499984868367 354.3683599781158 348.999998216629 351.9511725088519C370.24999794642133 349.53398503958806 378.74999783833823 413.96929672025067 399.9999975681305 421.5661716236514C421.24999729792285 429.1630465270522 429.7499971898397 385.826328328107 450.999996919632 388.4161720451755C472.24999664942436 391.0060157622439 480.74999654134115 433.8247652177754 501.99999627113345 433.9974214655799C523.2499960009256 434.1700777133845 531.7499958928427 383.892578352696 552.999995622635 389.2449220346374C574.2499953524273 394.5972657165788 582.7499952443441 460.7246086257262 603.9999949741364 459.68867113889877C625.2499947039287 458.65273365207145 633.7499945958457 390.31539077102565 654.9999943256379 384.272422097866C676.2499940554302 378.2294534247063 695.3749938122431 421.01367163067687 705.9999936771394 430.68242150773233 "
            transform="rotate(17, 400, 400)"></path>
        <path
            d="M112.000001373291 417.1775596444899C122.00000124613443 401.9025598387216 140.0000010172526 341.9075606015974 160.00000076293946 343.8575605768019C180.0000005086263 345.80756055200635 188.00000040690105 425.7250595358028 208.00000015258786 426.53755952547135C227.99999989827472 427.3500595151399 235.9999997965495 346.7825605396086 255.99999954223634 347.75756052721084C275.9999992879232 348.7325605148131 283.9999991861979 429.7550594845587 303.99999893188476 431.21755946596204C323.9999986775716 432.6800594473654 331.99999857584635 357.0525604090188 351.9999983215332 354.77756043794693C371.9999980672201 352.502560466875 379.9999979654948 413.147559695734 399.99999771118166 420.297559604817C419.9999974568685 427.4475595139001 427.99999735514325 386.66006003253995 447.9999971008301 389.09756000154556C467.999996846517 391.5350599705512 475.99999674479164 431.83505945811015 495.99999649047857 431.99755945604386C515.9999962361653 432.16005945397757 523.9999961344402 384.84006005568244 543.999995880127 389.8775599916273C563.9999956258139 394.9150599275722 571.9999955240885 457.1525591361815 591.9999952697755 456.17755914857923C611.9999950154622 455.20255916097705 619.999994913737 390.88505997881634 639.9999946594238 385.19756005113663C659.9999944051108 379.5100601234569 677.9999941762289 419.7775596114292 687.9999940490724 428.8775594957167 "
            transform="rotate(16, 400, 400)"></path>
        <path
            d="M130.00000128746032 416.10398195545133C139.37500116825103 401.78366963754354 156.25000095367432 345.53835785273964 175.00000071525574 347.36648282949386C193.75000047683716 349.19460780624803 201.25000038146973 424.1172631035572 220.00000014305112 424.87898184387143C238.74999990463255 425.6407005841857 246.24999980926515 350.10867029462514 264.99999957084657 351.0227327830022C283.749999332428 351.9367952713793 291.24999923706054 427.89538805551587 309.999998998642 429.2664817880815C328.74999876022343 430.63757552064715 336.249998664856 359.73679517219716 354.9999984264374 357.60398269931727C373.7499981880188 355.47117022643744 381.24999809265137 412.3258570034927 399.99999785423284 419.02898191825807C418.74999761581427 425.7321068330234 426.2499975204468 387.4938260692483 444.99999728202823 389.77898229019104C463.7499970436097 392.06413851113376 471.2499969482422 429.8453880307203 489.9999967098236 429.9977317787832C508.74999647140504 430.150075526846 516.2499963760376 385.78757609094436 534.9999961376191 390.5102322808927C553.7499958992005 395.23288847084103 561.249995803833 453.5805439789122 579.9999955654145 452.66648149053515C598.7499953269959 451.75241900215804 606.2499952316284 391.4547635188824 624.9999949932098 386.12273233668265C643.7499947547914 380.7907011544829 660.6249945402146 418.54148192445695 669.9999944210053 427.07273181597645 "
            transform="rotate(15, 400, 400)"></path>
        <path
            d="M148.00000120162963 415.0303737488347C156.75000109036762 401.6647489187874 172.50000089009603 349.1691245863038 190.000000667572 350.8753745646077C207.50000044504802 352.5816245429116 214.5000003560384 422.5094361537335 232.0000001335144 423.22037364469344C249.4999999109904 423.9313111356534 256.4999998219808 353.4347495320635 273.9999995994568 354.2878745212155C291.4999993769328 355.14099951036746 298.4999992879232 426.0356861088949 315.99999906539915 427.3153735926228C333.4999988428752 428.59506107635076 340.4999987538656 362.4209994177975 357.9999985313416 360.43037444310954C375.49999830881757 358.43974946842167 382.49999821980794 411.5041237936733 399.99999799728397 417.76037371412093C417.49999777475995 424.0166236345686 424.4999976857504 388.3275615883785 441.99999746322635 390.4603740612584C459.4999972407024 392.5931865341383 466.4999971516927 427.8556860857524 483.99999692916873 427.9978735839444C501.4999967066447 428.1400610821364 508.49999661763513 386.73506160862814 525.9999963951111 391.14287405257994C543.4999961725871 395.5506864965317 550.4999960835775 450.0084983040648 567.9999958610535 449.1553733149129C585.4999956385295 448.3022483257609 592.4999955495199 392.0244365413703 609.9999953269959 387.04787410465053C627.499995104472 382.07131166793084 643.2499949042003 417.3053737199065 651.9999947929383 425.26787361865814 "
            transform="rotate(14, 400, 400)"></path>
        <path
            d="M166.00000111579894 413.9567808010071C174.12500101248423 401.5458434588203 188.75000082651775 352.79990657865693 205.00000061988828 354.38428155851057C221.25000041325887 355.9686565383642 227.7500003306071 420.9016244626988 244.00000012397766 421.5617807043045C260.24999991734825 422.22193694591016 266.74999983469644 356.760844028291 282.99999962806703 357.55303151821784C299.2499994214376 358.3452190081446 305.7499993387858 424.175999421063 321.9999991321564 425.36428065595317C338.24999892552694 426.55256189084344 344.7499988428752 365.1052189221868 360.9999986362458 363.2567814456909C377.2499984296163 361.40834396919496 383.7499983469645 410.6824058426429 399.9999981403351 416.49178076877286C416.2499979337057 422.30115569490283 422.7499978510539 389.16131236629775 438.99999764442447 391.14178109111475C455.24999743779506 393.1222498159318 461.74999735514325 425.8659993995735 477.9999971485138 425.99803064789467C494.2499969418844 426.1300618962158 500.7499968592326 387.682562385101 516.9999966526032 391.77553108305625C533.2499964459737 395.86849978101145 539.749996363322 446.43646788800646 555.9999961566925 445.6442803980797C572.2499959500631 444.8520929081528 578.7499958674114 392.59412482264725 594.9999956607819 387.97303113140754C611.2499954541524 383.3519374401678 625.874995268186 416.0692807741452 633.9999951648713 423.46303068012884 "
            transform="rotate(13, 400, 400)"></path>
        <path
            d="M184.00000102996825 412.8831725943904C191.50000093460082 401.42692274006413 205.00000076293946 356.430673312221 220.00000057220458 357.8931732936244C235.00000038146973 359.3556732750277 241.00000030517577 419.2937975128751 256.0000001144409 419.90317250512646C270.99999992370607 420.51254749737785 276.99999984741214 360.0869232657294 291.99999965667723 360.81817325643107C306.9999994659424 361.5494232471327 312.99999938964845 422.31629747444197 327.99999919891354 423.4131724604945C342.9999990081787 424.510047446547 348.99999893188476 367.78942316778705 363.99999874114997 366.08317318948315C378.99999855041506 364.37692321117925 384.9999984741211 409.8606726328235 399.9999982833863 415.2231725646357C414.99999809265137 420.585672496448 420.99999801635744 389.99504788542794 435.9999978256226 391.8231728621821C450.9999976348878 393.65129783893633 456.99999755859375 423.87629745460555 471.9999973678589 423.9981724530558C486.99999717712404 424.12004745150614 492.9999971008301 388.6300479027848 507.99999691009526 392.40817285474344C522.9999967193603 396.1862978067021 528.9999966430664 442.86442221315906 543.9999964523316 442.13317222245735C558.9999962615967 441.4019222317557 564.9999961853027 393.1637978451352 579.9999959945679 388.8981728993754C594.999995803833 384.63254795361564 608.4999956321717 414.8331725695948 615.9999955368042 421.65817248281047 "
            transform="rotate(12, 400, 400)"></path>
        <path
            d="M202.00000094413755 411.8095796465627C208.8750008567174 401.30801728009703 221.25000069936118 360.06145530457417 235.00000052452089 361.40208028752727C248.7500003496806 362.7427052704803 254.25000027974446 417.6859858218404 268.0000001049042 418.2445795647375C281.7499999300639 418.8031733076346 287.2499998601278 363.4130177619569 300.9999996852875 364.0833302534334C314.7499995104472 364.75364274490994 320.2499994405111 420.45661078661004 333.9999992656708 421.46207952382485C347.74999909083044 422.46754826103967 353.2499990208944 370.47364267217637 366.9999988460541 368.9095801920645C380.7499986712138 367.34551771195254 386.24999860127775 409.0389546817931 399.9999984264374 413.95457961928764C413.7499982515971 418.87020455678226 419.249998181661 390.8287986633472 432.9999980068207 392.5045798920385C446.74999783198047 394.18036112072986 452.24999776204425 421.8866107684267 465.999997587204 421.9983295170061C479.7499974123637 422.11004826558553 485.2499973424276 389.57754867925763 498.9999971675873 393.04082988521975C512.749996992747 396.50411109118187 518.2499969228109 439.2923917971007 531.9999967479706 438.6220793056242C545.7499965731304 437.9517668141477 551.2499965031942 393.7334861264122 564.999996328354 389.8233299261324C578.7499961535136 385.9131737258526 591.1249959961574 413.5970796238335 597.9999959087372 419.85332954428117 "
            transform="rotate(11, 400, 400)"></path>
        <path
            d="M220.00000085830686 410.73598288403787C226.25000077883402 401.1891080054327 237.50000063578287 363.6922334822301 250.00000047683716 364.9109834667329C262.5000003178915 366.12973345123567 267.50000025431314 416.07817031610847 280.00000009536745 416.5859828096513C292.4999999364217 417.0937953031941 297.49999987284343 366.73910844348705 309.99999971389775 367.34848343573844C322.499999554952 367.95785842798983 327.4999994913737 418.59692028408085 339.999999332428 419.51098277245796C352.49999917348225 420.4250452608351 357.49999910990397 373.1578583618684 369.99999895095823 371.7359833799485C382.49999879201255 370.31410839802857 387.49999872843426 408.2172329160654 399.9999985694885 412.68598285924236C412.49999841054284 417.15473280241923 417.4999983469645 391.66254562656917 429.9999981880188 393.18598310719767C442.49999802907314 394.7094205878262 447.4999979654948 419.8969202675505 459.9999978065491 419.9984827662591C472.4999976476033 420.10004526496766 477.4999975840251 390.5250456410332 489.99999742507936 393.6734831009988C502.4999972661336 396.8219205609643 507.4999972025554 435.7203575663451 519.9999970436097 435.1109825740937C532.4999968846639 434.50160758184234 537.4999968210857 394.3031705929919 549.9999966621399 390.74848313819206C562.4999965031942 387.1937956833923 573.7499963601431 412.36098286337494 579.9999962806702 418.04848279105465 "
            transform="rotate(10, 400, 400)"></path>
        <path
            d="M238.0000007724762 409.6623899362103C243.62500070095064 401.0702025454656 253.75000057220458 367.32301547458326 265.00000042915343 368.41989046063577C276.2500002861023 369.5167654466883 280.75000022888185 414.4703586250738 292.0000000858307 414.9273898692623C303.24999994277954 415.38442111345086 307.7499998855591 370.06520293971454 318.99999974250795 370.6136404327408C330.2499995994568 371.16207792576705 334.7499995422363 416.737233596249 345.9999993991852 417.55988983578834C357.24999925613406 418.38254607532775 361.7499991989136 375.8420778662578 372.9999990558624 374.5623903825298C384.2499989128113 373.2827028988019 388.74999885559083 407.3955149650351 399.99999871253965 411.4173899138943C411.2499985694885 415.4392648627535 415.7499985122681 392.4962964044884 426.99999836921694 393.8673901370541C438.2499982261658 395.2384838696197 442.74999816894535 417.90723358137166 453.99999802589423 417.99863983020936C465.249997882843 418.09004607904706 469.7499978256226 391.47254641750607 480.99999768257146 394.3061401314751C492.2499975395203 397.1397338454441 496.7499974822999 432.1483271502868 507.9999973392487 431.5998896572605C519.2499971961975 431.05145216423426 523.749997138977 394.8728588742689 534.9999969959259 391.67364016494906C546.2499968528748 388.4744214556292 556.3749967241288 411.1248899176136 561.9999966526032 416.24363985252535 "
            transform="rotate(9, 400, 400)"></path>
        <path
            d="M256.0000006866455 408.5887779148963C261.0000006230672 400.95127801201215 270.0000005086263 370.9537783934501 280.0000003814697 371.9287783810523C290.00000025431314 372.90377836865457 294.00000020345055 412.8625278605528 304.00000007629393 413.26877785538704C313.99999994913736 413.6750278502213 317.9999998982747 373.39127836245564 327.99999977111815 373.87877835625676C337.9999996439616 374.3662783500579 341.99999959309895 414.87752783493073 351.9999994659424 415.6087778256324C361.9999993387858 416.3400278163341 365.9999992879232 378.5262782971608 375.9999991607666 377.38877831162483C385.99999903361004 376.2512783260889 389.9999989827474 406.57377794051837 399.99999885559083 410.1487778950599C409.99999872843426 413.72377784960145 413.9999986775716 393.33002810892134 423.99999855041506 394.5487780934242C433.9999984232585 395.76752807792695 437.9999983723958 415.91752782170647 447.9999982452393 415.9987778206733C457.99999811808266 416.0800278196401 461.9999980672201 392.4200281204926 471.9999979400635 394.938778088465C481.99999781290694 397.45752805643747 485.99999776204425 428.5762776607421 495.99999763488773 428.088777666941C505.9999975077311 427.60127767313986 509.9999974568685 395.44252808205954 519.999997329712 392.5987781182197C529.9999972025554 389.75502815437983 538.9999970881145 409.88877789836596 543.9999970245362 414.4387778405097 "
            transform="rotate(8, 400, 400)"></path>
        <path
            d="M274.0000006008148 407.51518115237144C278.3750005451838 400.8323687373478 286.25000044504804 374.58455657110596 295.00000033378603 375.43768156025794C303.750000222524 376.2908065494099 307.2500001780192 411.25471235482087 316.0000000667572 411.6101811003008C324.7499999554952 411.96564984578083 328.24999991099037 376.71736904398585 336.9999997997284 377.14393153856184C345.7499996884664 377.57049403313783 349.2499996439616 413.01783733240154 357.9999995326996 413.6576810742655C366.74999942143756 414.29752481612945 370.2499993769328 381.21049398685284 378.9999992656708 380.2151814995089C387.7499991544088 379.21986901216496 391.24999910990397 405.7520561747907 399.999998998642 408.88018113501454C408.74999888738 412.00830609523837 412.2499988428752 394.1637750721433 420.9999987316132 395.23018130858327C429.7499986203512 396.2965875450232 433.24999857584635 413.9278373208303 441.99999846458434 413.9989310699263C450.7499983533223 414.0700248190223 454.24999830881757 393.3675250822682 462.99999819755556 395.5714313042441C471.74999808629354 397.77533752621997 475.24999804178873 425.0042434299865 483.9999979305268 424.5776809354105C492.74999781926476 424.1511184408346 496.24999777475995 396.01221254863924 504.99999766349794 393.52393133027937C513.749997552236 391.0356501119195 521.6249974521002 408.6526811379074 525.9999973964691 412.63393108728314 "
            transform="rotate(7, 400, 400)"></path>
        <path
            d="M292.0000005149841 406.44158057514926C295.7500004673004 400.71345564798617 302.5000003814697 378.2153309340646 310.0000002861023 378.9465809247663C317.50000019073485 379.67783091546795 320.50000015258786 409.6468930343916 328.00000005722046 409.95158053051733C335.49999996185306 410.256268026643 338.49999992370607 380.0434559108188 345.9999998283386 380.40908090616966C353.4999997329712 380.77470590152046 356.4999996948242 411.1581430151751 363.99999959945677 411.70658050820134C371.4999995040894 412.2550180012276 374.4999994659424 383.8947058618476 381.999999370575 383.04158087269565C389.49999927520753 382.1884558835437 392.4999992370606 404.93033059436584 399.99999914169314 407.611580560272C407.4999990463257 410.2928305261781 410.49999900817875 394.99751822066804 417.9999989128113 395.91158070904515C425.4999988174439 396.82564319742227 428.4999987792969 411.93814300525685 435.99999868392945 411.99908050448204C443.499998588562 412.06001800370717 446.49999855041506 394.3150182293465 453.9999984550476 396.20408070532585C461.49999835968015 398.09314318130515 464.4999983215332 421.43220538453363 471.9999982261658 421.0665803891828C479.49999813079836 420.700955393832 482.49999809265137 396.5818932005217 489.99999799728397 394.4490807276418C497.4999979019165 392.3162682547619 504.24999781608585 407.4165805627515 507.9999977684021 410.82908051935937 "
            transform="rotate(6, 400, 400)"></path>
        <path
            d="M310.00000042915343 405.36798762732167C313.125000389417 400.59455018801907 318.7500003178914 381.8461129264178 325.0000002384186 382.4554879186692C331.25000015894574 383.06486291092057 333.75000012715657 408.03908134335694 340.0000000476837 408.29298759012835C346.2499999682109 408.5468938368998 348.7499999364217 383.3695504070463 354.9999998569489 383.67423790317196C361.249999777476 383.9789253992977 363.74999974568686 409.29845632734316 369.99999966621397 409.7554875715317C376.2499995867411 410.2125188157203 378.74999955495196 386.57892536623694 384.9999994754791 385.867987875277C391.2499993960063 385.157050384317 393.74999936421716 404.10861264333545 399.99999928474426 406.3429876149239C406.2499992052714 408.5773625865124 408.74999917348225 395.83126899858735 414.9999990940094 396.59298773890157C421.24999901453657 397.3547064792158 423.7499989827474 409.948456319078 429.99999890327456 409.9992375684323C436.24999882380166 410.05001881778657 438.74999879201255 395.26251900581934 444.99999871253965 396.8367377358021C451.2499986330668 398.4109564657849 453.7499986012777 417.8601749684753 459.99999852180486 417.55548747234957C466.24999844233196 417.2507999762239 468.74999841054284 397.15158148179864 474.99999833106995 395.3742377543988C481.2499982515971 393.5968940269989 486.87499818007154 406.1804876169902 489.9999981403351 409.02423758083006 "
            transform="rotate(5, 400, 400)"></path>
        <path
            d="M328.00000034332277 404.2943889574482C330.5000003115336 400.4756390060061 335.00000025431314 385.47688919672504 340.00000019073485 385.96438919052616C345.00000012715657 386.4518891843273 347.0000001017253 406.4312639302764 352.00000003814694 406.6343889276935C356.9999999745687 406.83751392511067 358.99999994913736 386.6956391812278 363.9999998855591 386.9393891781284C368.9999998219808 387.18313917502894 370.99999979654945 407.4387639174654 375.9999997329712 407.8043889128162C380.9999996693929 408.17001390816705 382.9999996439616 389.26313914858036 387.9999995803833 388.6943891558124C392.999999516805 388.12563916304447 394.9999994913737 403.28688897025916 399.9999994277954 405.07438894752994C404.99999936421716 406.8618889248007 406.9999993387858 396.6650140544607 411.99999927520753 397.2743890467121C416.99999921162924 397.8837640389635 418.9999991861979 407.95876391085324 423.99999912261967 407.9993889103366C428.99999905904133 408.04001390982006 430.99999903361004 396.2100140602463 435.99999897003175 397.4693890442325C440.99999890645347 398.72876402821873 442.9999988810221 414.28813883037105 447.99999881744384 414.0443888334705C452.99999875386555 413.80063883656993 454.99999872843426 397.72126404102977 459.999998664856 396.29938905910984C464.9999986012777 394.8775140771899 469.49999854405723 404.944388949183 471.9999985122681 407.21938892025486 "
            transform="rotate(4, 400, 400)"></path>
        <path
            d="M346.0000040721893 403.2207941022719C347.8750040483475 400.35673163869035 351.2500040054321 389.10766928172956 355.0000039577484 389.4732942770804C358.7500039100647 389.83891927243127 360.2500038909912 404.82345033189307 364.00000384330747 404.9757940799559C367.7500037956238 405.1281378280188 369.25000377655033 390.02173177010667 373.00000372886655 390.20454426778207C376.7500036811829 390.3873567654575 378.2500036621094 405.5790753222848 382.0000036144256 405.85329406879794C385.75000356674195 406.1275128153111 387.2500035476685 391.94735674562105 391.00000349998476 391.5207942510451C394.75000345230103 391.0942317564691 396.25000343322756 402.4651691118802 400.00000338554383 403.80579409483323C403.7500033378601 405.14641907778633 405.25000331878664 397.4987629250313 409.0000032711029 397.95579416921987C412.7500032234192 398.41282541340837 414.2500032043457 405.9690753173257 418.000003156662 405.99954406693826C421.75000310897826 406.0300128165509 423.2500030899048 397.1575129293705 427.00000304222107 398.1020441673602C430.75000299453734 399.0465754053498 432.2500029754639 410.7161065069641 436.0000029277802 410.5332940092887C439.7500028800964 410.3504815116132 441.25000286102295 398.2909504149581 445.0000028133393 397.22454417851816C448.7500027656555 396.1581379420782 452.1250027227402 403.708294096073 454.00000269889836 405.4145440743769 "
            transform="rotate(3, 400, 400)"></path>
        <path
            d="M364.00000398635865 402.1471935250498C365.2500039704641 400.2378185493287 367.50000394185383 392.73844364468823 370.0000039100647 392.98219364158876C372.50000387827555 393.2259436384893 373.5000038655599 403.21563101146387 376.00000383377073 403.31719351017244C378.5000038019816 403.418756008881 379.500003789266 393.3478186369396 382.0000037574768 393.4696936353899C384.50000372568763 393.59156863384015 385.500003712972 403.7193810050584 388.0000036811829 403.9021935027338C390.5000036493937 404.0850060004092 391.50000363667806 394.6315686206159 394.0000036048889 394.34719362423186C396.5000035730998 394.0628186278479 397.50000356038413 401.64344353145526 400.00000352859496 402.5371935200907C402.50000349680585 403.43094350872605 403.50000348409014 398.33250607355603 406.00000345230103 398.6371935696817C408.5000034205119 398.9418810658074 409.5000034077962 403.9793810017523 412.0000033760071 403.999693501494C414.50000334421793 404.02000600123574 415.5000033315023 398.10500607644883 418.00000329971317 398.7346935684419C420.500003267924 399.36438106043505 421.5000032552083 407.1440684615112 424.0000032234192 407.02219346306094C426.50000319163007 406.9003184646107 427.5000031789144 398.8606310668406 430.00000314712526 398.14969357588063C432.5000031153361 397.43875608492067 434.7500030867259 402.4721935209172 436.0000030708313 403.60969350645314 "
            transform="rotate(2, 400, 400)"></path>
        <path
            d="M382.00000008583066 401.07359676252486C382.6250000778834 400.11890927466436 383.7500000635783 396.3692218223441 385.0000000476837 396.4910968207944C386.2500000317891 396.61297181924465 386.7500000254313 401.60781550573193 388.00000000953673 401.65859675508625C389.2499999936422 401.7093780044405 389.74999998728435 396.6739093184698 390.9999999713898 396.7348468176949C392.2499999554952 396.79578431692005 392.74999994913736 401.8596905025292 393.9999999332428 401.9510967513669C395.2499999173482 402.0425030002046 395.74999991099037 397.31578431030795 396.9999998950958 397.17359681211593C398.24999987920125 397.031409313924 398.74999987284343 400.82172176572766 399.9999998569489 401.26859676004534C401.2499998410543 401.715471754363 401.74999983469644 399.166253036778 402.9999998188019 399.31859678484085C404.2499998029073 399.4709405329037 404.74999979654945 401.9896905008761 405.9999997806549 401.999846750747C407.24999976476033 402.01000300061787 407.7499997584025 399.0525030382244 408.99999974250795 399.36734678422096C410.2499997266134 399.68219053021755 410.7499997202555 403.5720342307556 411.99999970436096 403.5110967315305C413.2499996884664 403.45015923230534 413.7499996821086 399.4303155334203 414.99999966621397 399.0748467879403C416.2499996503194 398.71937804246033 417.3749996360143 401.23609676045857 417.99999962806703 401.80484675322657 "
            transform="rotate(1, 400, 400)"></path>
    </g>
</svg>