<svg xmlns="http://www.w3.org/2000/svg" version="1.1"
    xmlns:xlink="http://www.w3.org/1999/xlink"
    xmlns:svgjs="http://svgjs.dev/svgjs" viewBox="0 0 800 800" opacity="1">
    <defs>
        <linearGradient x1="50%" y1="0%" x2="50%" y2="100%" id="wwwhirl-grad">
            <stop stop-color="#0891b2ff" stop-opacity="1" offset="45%"></stop>
            <stop stop-color="#60686aff" stop-opacity="1" offset="100%"></stop>
        </linearGradient>
    </defs>
    <g stroke-width="2" stroke="url(#wwwhirl-grad)" fill="none"
        stroke-linecap="round">
        <path
            d="M-267.00006403836323 414.05051594610586C-231.6288509358386 394.95006087074256 -216.46975960618516 343.7881276331623 -145.72733340113592 348.5632414020031C-74.98490719608662 353.3383551708439 -95.19702896895788 433.0751755648209 -24.45460276390861 430.42233458213155C46.28782344114063 427.76949359944217 26.075701668269346 331.509263656143 96.8181278733187 339.467786604211C167.560554078368 347.4263095522791 147.34843230549683 457.17813077896983 218.090858510546 457.7086989755077C288.83328471559525 458.2392671720455 268.621162942724 338.1034683845422 339.36358914777327 341.28687756376945C410.1060153528225 344.4702867429967 389.8938935799513 473.9289266982368 460.63631978500064 468.6232447328581C531.3787459900499 463.31756276747944 511.16662421717876 336.36017288163214 581.909050422228 323.0959679681854C652.6514766272772 309.83176305473864 632.4393548544058 408.82062943737543 703.1817810594553 423.1459707438979C773.9242072645045 437.47131205042035 753.7120854916334 356.29437798012634 824.4545116966826 372.2114238762624C895.1969379017319 388.1284697723985 874.9848161288605 485.1466542821803 945.7272423339098 477.71869953065016C1016.469668538959 470.29074477912 1031.6287598686124 384.9450605931713 1066.9999729711371 346.7441504424447 "
            transform="rotate(21.75, 400, 400)"></path>
        <path
            d="M-244.00006419788696 413.5660269718732C-209.84854809889765 395.124208278419 -195.21218405647363 345.72647963523804 -126.90915185849508 350.3369343086016C-58.60611966051647 354.94738898196516 -78.12127171708178 431.9346638451153 -9.818239519103201 429.3733001376911C58.48479267887541 426.81193643026694 38.96964062231007 333.8710247608746 107.27267282028873 341.5551158831472C175.57570501826734 349.2392070054198 156.06055296170211 455.20648267256945 224.3635851596806 455.71875541405427C292.6666173576592 456.2310281555391 273.1514653010938 340.23784311932906 341.45449749907243 343.3114795682381C409.75752969705104 346.38511601714714 390.24237764048564 471.37966493944793 458.54540983846437 466.25693752459955C526.848442036443 461.13421010975117 507.3332899798777 338.5546612544503 575.6363221778563 325.7478427173293C643.9393543758348 312.94102418020833 624.4242023192695 408.5164813772369 692.7272345172481 422.3478453973276C761.0302667152266 436.1792094174183 741.5151146586613 357.80147997023784 809.8181468566399 373.169662214783C878.1211790546188 388.5378444593282 858.6060269980533 482.2105743308417 926.9090591960319 475.038755950054C995.2120913940105 467.86693756926616 1009.8484554364343 385.46420801041916 1043.9999715354238 348.5805706235107 "
            transform="rotate(21, 400, 400)"></path>
        <path
            d="M-221.00006435741065 413.08153799764057C-188.0682452619567 395.2983556860954 -173.9546085067621 347.6648316373138 -108.09097031585418 352.1106272152001C-42.22733212494629 356.55642279308637 -61.045514465205684 430.79415212540977 4.818123725702208 428.3242656932507C70.68176191661018 425.85437926109165 51.86357957635079 336.2327858656062 117.72721776725876 343.64244516208333C183.59085595816669 351.0521044585605 164.7726736179073 453.2348345661691 230.6363118088152 453.72881185260087C296.49994999972307 454.22278913903267 277.68176765946373 342.37221785411583 343.5454058503716 345.3360815727067C409.40904404127946 348.29994529129755 390.5908617010201 468.83040318065906 456.4544998919281 463.890630316341C522.318138082836 458.9508574520229 503.49995574257673 340.7491496272685 569.3635939334845 328.39971746647325C635.2272321243926 316.050285305678 616.409049784133 408.21233331709846 682.272687975041 421.5497200507573C748.136326165949 434.8871067844162 729.3181438256896 359.30858196034933 795.1817820165975 374.1279005533036C861.0454202075055 388.9472191462579 842.227237867246 479.27449437950304 908.090876058154 472.3588123694577C973.954514249062 465.44313035941235 988.0681510042564 385.98335542766705 1020.9999700997103 350.41699080457676 "
            transform="rotate(20.25, 400, 400)"></path>
        <path
            d="M-198.00006451693434 412.59703376461886C-166.28794242501573 395.4724878349828 -152.6970329570506 349.6031683806005 -89.27278877321334 353.8843048630095C-25.848544589376075 358.1654413454185 -43.969757213329586 429.6536251469151 19.454486970507674 427.2752159900212C82.87873115434496 424.8968068331273 64.75751853039145 338.59453171154877 128.18176271422874 345.72975918223045C191.60600689806608 352.86498665291214 173.48479427411257 451.2631712009797 236.90903845794975 451.73885303235846C300.33328264178704 452.2145348637372 282.21207001783364 344.5065773301136 345.63631420167076 347.3606683183863C409.060558385508 350.21475930665895 390.9393457615545 466.2811261630811 454.3635899453918 461.52430784929334C517.7878341292292 456.76748953550555 499.66662150527566 342.9436227412976 563.0908656891129 331.0515769568281C626.5151098729502 319.1595311723586 608.3938972489966 407.90816999817093 671.8181414328338 420.75157944539797C735.2423856166712 433.594988892625 717.1211729927177 360.8156686916717 780.545417176555 375.08612363303513C843.9696613603924 389.3565785743985 825.8484487364387 476.3383991693753 889.2726929202761 469.6788535300724C952.6969371041132 463.0193078907695 966.2878465720783 386.5024875861258 997.9999686639969 352.2533957268537 "
            transform="rotate(19.5, 400, 400)"></path>
        <path
            d="M-175.00006467645807 412.1125219022026C-144.50763958807477 395.6466123544757 -131.43945740733906 351.54149749449266 -70.45460723057246 355.6579748814244C-9.469757053805864 359.7744522683562 -26.89399996145346 428.51309053902594 34.09085021531314 426.2261586573972C95.07570039207974 423.9392267757685 77.65145748443211 340.95626992809673 138.63630766119877 347.817065572983C199.62115783796543 354.67786121786924 182.19691493031786 449.29150020639577 243.1817651070844 449.74888658272147C304.1666152838509 450.2062729590472 286.7423723762033 346.6409291767168 347.7272225529699 349.38524743467127C408.7120727297365 352.12956569262576 391.28782982208895 463.73184151610866 452.27267999885555 459.15797775285114C513.2575301756223 454.5841139895937 495.8332872679747 345.13808822593217 556.8181374447412 333.70342881778845C617.8029876215079 322.2687694096447 600.3787447138601 407.6039990498488 661.3635948906268 419.9534312106441C722.3484450673934 432.30286337143934 704.9242021597458 362.3227477935996 765.9090523365124 376.0443390833721C826.893902513279 389.7659303731446 809.4696596056315 473.4022963298531 870.454509782398 466.99888706129263C931.4393599591647 460.5954777927321 944.5075421399004 387.0216121151901 974.9999672282836 354.08979301973613 "
            transform="rotate(18.75, 400, 400)"></path>
        <path
            d="M-152.0000648359818 411.62801766918096C-122.7273367511338 395.820744503363 -110.18188185762753 353.47983423777936 -51.63642568793159 357.4316525292339C6.909030481764347 361.38347082068833 -9.818242709577362 427.3725635605313 48.727213460118605 425.1771089541677C107.27266962981452 422.9816543478041 90.54539643847284 343.3180157740393 149.0908526081688 349.9043795931301C207.63630877786477 356.49074341222087 190.9090355865231 447.3198368412063 249.454491756219 447.758927762479C307.99994792591485 448.19801868375174 291.27267473457323 348.7752886527145 349.8181309042691 351.40983418035086C408.36358707396505 354.04437970798716 391.6363138826234 461.1825644985307 450.1817700523193 456.79165528580353C508.72722622201525 452.40074607307633 491.9999530306736 347.3325613399613 550.5454092003696 336.3552883081433C609.0908653700654 325.3780152763253 592.3635921787237 407.29983573092125 650.9090483484197 419.15529060528473C709.4545045181156 431.01074547964816 692.727231326774 363.82983452492203 751.27268749647 377.0025621631036C809.818143666166 390.1752898012852 793.090870474824 470.4662011197254 851.6363266445201 464.3189282219073C910.1817828142159 458.1716553240892 922.7272377077222 387.5407442736489 951.9999657925703 355.9261979420131 "
            transform="rotate(18, 400, 400)"></path>
        <path
            d="M-129.00005736611095 411.1435210655538C-100.94702628479831 395.99488428164494 -88.92429867852147 355.4181786104606 -32.81823651589622 359.2053378064378C23.28782564672909 362.992497002415 7.257522171693296 426.23204421143123 63.363584334318546 424.12806688033277C119.46964649694382 422.0240895492343 103.43934302190803 345.67976924937636 159.5454051845333 351.9917012426717C215.65146734715864 358.303633235967 199.6211638721229 445.3481811054114 255.72722603474807 445.7689765716311C311.83328819737335 446.18977203785073 295.80298472233756 350.9096557581068 351.9090468849629 353.4344285554249C408.0151090475881 355.95920135274304 391.9848055725523 458.63329511034726 448.09086773517765 454.4253404481504C504.1969298978029 450.2173857859535 488.1666264227672 349.52704208338497 544.2726885853924 339.0071554278927C600.3787507480176 328.48726877240045 584.3484472729817 406.99568004138825 640.4545094356071 418.3571576293199C696.5605715982324 429.7186352172515 680.5302681231967 365.336928885639 736.6363302858219 377.96079287222966C792.7423924484473 390.5846568588204 776.7120889734114 467.53011353899217 832.8181511360367 461.6389770119165C888.9242132986619 455.7478404848408 900.9469409049386 388.0598840615022 928.9999719862515 357.7626104936846 "
            transform="rotate(17.25, 400, 400)"></path>
        <path
            d="M-106.00002700805653 410.6590130178348C-79.16669293027923 396.1690126158351 -67.66669261123181 357.35651153905 -14.000024455677192 360.97901163955C39.6666436998774 364.6015117400499 24.33330994114752 425.09151341823934 77.99997809670211 423.07901336240604C131.66664625225678 421.06651330657274 116.33331249352682 348.04151128062165 169.99998064908146 354.07901144812155C223.6666488046361 360.1165116156214 208.33331504590626 443.3765139255247 261.99998320146085 443.7790139366914C315.6666513570154 444.18151394785804 300.3333175982856 353.04401141940724 353.99998575384006 355.45901148640723C407.66665390939465 357.8740115534072 392.3333201506648 456.0840142780721 445.9999883062195 452.0590141664055C499.6666564617741 448.0340140547389 484.33332270304425 351.7215113827168 537.9999908585988 341.6590111035503C591.6666590141534 331.5965108243838 576.3333252554235 406.69151290776347 629.9999934109782 417.5590132092633C683.6666615665329 428.4265135107631 668.3333278078029 366.84401180226416 721.9999959633576 378.91901213726396C775.6666641189122 390.9940124722637 760.3333303601821 464.59401451416716 813.9999985157368 458.959014357834C867.6666666712915 453.32401420150075 879.1666669903389 388.57901240526377 906.000001068116 359.5990116012643 "
            transform="rotate(16.5, 400, 400)"></path>
        <path
            d="M-83.00002716758024 410.1745202289049C-57.38639009333828 396.34315620881426 -46.40911706152028 359.2948597264285 4.818157086963652 362.7527007314512C56.04543123544761 366.2105417364739 41.409067193023645 423.9509978838365 92.63634134150757 422.0299751032683C143.8636154899915 420.1089523227002 129.22725144756748 350.40326857065594 180.4545255960515 356.1663369123604C231.6817997445355 361.9294052540649 217.04543570211155 441.4048620044271 268.27270985059545 441.78906656054073C319.49998399907935 442.17327111665435 304.8636199566554 355.1783823394968 356.0908941051393 357.48360967617856C407.3181682536232 359.7888370128603 392.6818042111993 453.5347487045859 443.90907835968324 449.69270314344965C495.1363525081672 445.8506575823134 480.4999884657432 353.9159959408377 531.7272626142271 344.310882037997C582.9545367627112 334.70576813515623 568.3181727202871 406.3873610329277 619.545446868771 416.7608840479957C670.7727210172551 427.1344070630637 656.1363569748311 368.3511099776784 707.363631123315 379.87724666108727C758.590905271799 391.40338334449615 743.954541229375 461.65793074813126 795.1818153778588 456.27906696254047C846.4090895263429 450.9002031769496 857.3863625581607 389.0981560078144 882.9999996324027 361.435427967633 "
            transform="rotate(15.75, 400, 400)"></path>
        <path
            d="M-59.999996809525825 409.6900236252777C-35.60605673881919 396.51729598709613 -25.15151099423062 361.23320409910974 23.636369147182677 364.52638600865515C72.42424928859595 367.81956791820056 58.48485496247784 422.8104785347364 107.27273510389114 420.9809330294334C156.06061524530446 419.15138752413037 142.12122091918638 352.765022045993 190.9091010605996 358.253658561902C239.69698120201298 363.74229507781104 225.7575868758949 439.4332062686322 274.54546701730817 439.7991153696928C323.3333471587214 440.1650244707534 309.39395283260336 357.31274944488905 358.1818329740166 359.5082040512527C406.96971311542984 361.70365865761624 393.0303187893119 450.9854793164026 441.8181989307252 447.32638830579657C490.6060790721384 443.66729729519056 476.66668474602034 356.11047668426136 525.4545648874335 346.9627491577464C574.2424450288469 337.8150216312314 560.3030507027287 406.0832053433947 609.090930844142 415.96275107203087C657.8788109855553 425.8422968006671 643.9394166594374 369.85820433839535 692.7272968008506 380.8354773702133C741.515176942264 391.8127504020313 727.5757826161457 458.7218431673981 776.3636627575592 453.59911575254966C825.1515428989724 448.4763883377013 835.6060886435608 389.6172957956677 860.0000287142675 363.27184051930453 "
            transform="rotate(15, 400, 400)"></path>
        <path
            d="M-36.99999696904953 409.20550794816427C-13.82575390187823 396.69141669189173 -3.8939354445190872 363.17152939830464 42.45455068982352 366.3000522123728C88.80303682416616 369.4285750264409 75.56061221435397 421.66994011214996 121.90909834869657 419.9318718821121C168.25758448303918 418.1938036520743 155.01515987322705 355.1267564478438 201.36364600756963 360.3409611379573C247.71213214191232 365.55516582807087 234.46970753210013 437.461531459351 280.81819366644277 437.80914510535854C327.16667980078535 438.1567587513661 313.9242551909732 359.44709747679497 360.27274132531574 361.5327793528404C406.62122745965837 363.61846122888585 393.3788028498462 448.4361908547328 439.7272889841888 444.9600543946571C486.0757751185315 441.4839179345814 472.8333505087194 358.30493835419867 519.181836643062 349.61459720400944C565.5303227774046 340.9242560538202 552.2878981675923 405.7790305803753 598.636384301935 415.16459902257975C644.9848704362776 424.5501674647841 631.7424458264654 371.36527962562593 678.0909319608081 381.793689005853C724.4394180951507 392.2220983860801 711.1969934853385 455.78573651317856 757.5454796196811 450.91914546907265C803.8939657540237 446.0525544249666 813.8257842113827 390.1364165100347 837.0000272785541 365.1082339974897 "
            transform="rotate(14.25, 400, 400)"></path>
        <path
            d="M-13.999997128573241 408.7210189739316C7.954548935062732 396.8655640995682 17.363640105192445 365.1098814003804 61.27273223246439 368.07374511897126C105.18182435973634 371.0376088375621 92.63636946623006 420.5294283924444 136.545461593502 418.8828374376717C180.45455372077402 417.236246482899 167.9090988272677 357.4885175525754 211.81819095453966 362.42829041689345C255.72728308181166 367.36806328121156 243.18182818830542 435.48988335295064 287.0909203155773 435.81920154390514C331.00001244284925 436.1485197348597 318.454557549343 361.5814722115818 362.3636496766149 363.557381357309C406.2727418038869 365.53329050303626 393.7272869103806 445.8869290959439 437.63637903765255 442.59374718639856C481.5454711649246 439.30056527685315 469.0000162714183 360.4994267270169 512.9091083986903 352.26647195315337C556.8182005259622 344.0335171792899 544.2727456324559 405.47488252023686 588.1818377597278 414.36647367600943C632.0909298869998 423.258064831782 619.5454749934936 372.8723816157374 663.4545671207655 382.7519273443736C707.3636592480376 392.63147307300983 694.8182043545312 452.84965656183994 738.7272964818031 448.2392018884764C782.6363886090751 443.6287472151128 792.0454797792048 390.65556392728257 814.0000258428407 366.9446541785557 "
            transform="rotate(13.5, 400, 400)"></path>
        <path
            d="M9.00000271190305 408.23651092621265C29.73485177200368 397.0396924337583 38.62121565490398 367.04821432896983 80.09091377510526 369.84741895208344C121.56061189530655 372.64662357519705 109.71212671810616 419.3888975992525 151.18182483830745 417.833783919745C192.65152295850874 416.2786702402374 180.80303778130838 359.8502595838206 222.2727359015097 364.5156006223433C263.742434021711 369.1809416608659 251.89394884451065 433.51821617306393 293.3636469647119 433.8292389089654C334.83334508491316 434.14026164486694 322.9848599077128 363.71582787288224 364.4545580279141 365.5819642882913C405.9242561481153 367.4481007037004 394.07577097091496 443.3376482636687 435.5454690911164 440.2274209046536C477.0151672113177 437.11719354563854 465.16668203411734 362.69389602634874 506.63638015431854 354.91832762881097C548.1060782745199 347.14275923127326 536.2575930973194 405.1707153866121 577.7272912175207 413.5683292559528C619.196989337722 421.96594312529356 607.3485041605217 374.3794645323626 648.818202280723 383.7101466094079C690.2879004009243 393.04082868645315 678.4394152237239 449.9135575370149 719.9091133439251 445.5592392343938C761.3788114641266 441.2049209317727 770.2651753470267 391.17469227104414 791.0000244071274 368.7810552861354 "
            transform="rotate(12.75, 400, 400)"></path>
        <path
            d="M32.00000255237934 407.7520105078882C51.51515460894464 397.2138283973429 59.87879120461551 368.98655488695385 98.90909531774614 371.62110041459016C137.93939943087673 374.25564594222647 126.78788396998229 418.2483744354551 165.81818808311291 416.7847380312127C204.84849219624354 415.32110162697035 193.69697673534907 362.21200924446043 232.72728084847972 366.6029184571876C271.7575849616104 370.9938276699148 260.6060695007159 431.54655662257176 299.63637361384656 431.83928390342027C338.6666777269771 432.1320111842687 327.5151622660827 365.8501911635773 366.5454663792133 367.6065548486681C405.57577049234385 369.362918533759 394.42425503144943 440.78837506078804 433.45455914458006 437.8611022523033C472.48486325771074 434.93382944381847 461.3333477968163 364.8883729550751 500.36365190994684 357.5701909338631C539.3939560230776 350.25200891265115 528.242440562183 404.86655588238176 567.2727446753137 412.77019246529073C606.3030487884442 420.67382904819965 595.1515333275498 375.8865550783823 634.1818374406805 384.6683735038367C673.2121415538112 393.45019192929107 662.0606260929166 446.9774661415845 701.0909302060472 442.8792842097058C740.1212343191779 438.781102277827 748.4848709148487 391.6938282442002 768.000022971414 370.6174640231096 "
            transform="rotate(12, 400, 400)"></path>
        <path
            d="M55.000002392855635 407.267513904261C73.2954574458856 397.38796817562485 81.13636675432704 370.9248992596351 117.72727686038701 373.3947856917941C154.31818696644694 375.86467212395314 143.86364122185842 417.107855086355 180.45455132791835 415.73569595737774C217.04546143397832 414.3635368284005 206.59091568938973 364.5737627197975 243.18182579544973 368.6902401067293C279.7727359015097 372.806717493661 269.3181901569212 429.5749008867769 305.90910026298116 429.84933271257233C342.50001036904104 430.12376453836777 332.0454646244525 367.9845582689695 368.63637473051244 369.6311492237422C405.2272848365724 371.27774017851493 394.77273909198385 438.23910567260464 431.3636491980438 435.49478741465015C467.95455930410384 432.75046915669566 457.50001355951525 367.08285369849875 494.0909236655752 360.2220580536125C530.6818337716352 353.36126240872625 520.2272880270465 404.56240019284877 556.8181981331065 411.9720594893259C593.4091082391666 419.38171878580306 582.954562494578 377.39364943909925 619.5454726006379 385.6266042129627C656.136382706698 393.8595589868262 645.6818369621093 444.0413785608513 682.2727470681692 440.199332999715C718.8636571742293 436.35728743857874 726.7045664826707 392.2129680320535 745.0000215357006 372.45387657478113 "
            transform="rotate(11.25, 400, 400)"></path>
        <path
            d="M78.00000223333193 406.78301348593664C95.07576028282656 397.5621041392095 102.39394230403857 372.86323981761905 136.54545840302785 375.1684671543008C170.69697450201716 377.47369449098255 160.9393984737345 415.96733192255766 195.0909145727238 414.68665006884555C229.2424306717131 413.40596821513344 219.48485464343042 366.93551238043733 253.63637074241976 370.7775579415736C287.7878868414091 374.6196035027099 278.03031081312645 427.6032413362847 312.1818269121157 427.85937770702714C346.333343011105 428.11551407776955 336.5757669828223 370.1189215596645 370.7272830818116 371.655739784119C404.8787991808009 373.19255800857354 395.1212231525182 435.68983246972397 429.2727392515076 433.1284687622998C463.4242553504969 430.5671050548756 453.66667932221424 369.2773306272251 487.81819542120354 362.87392135866463C521.9697115201927 356.47051209010414 512.2121354919102 404.25824068861846 546.3636515908995 411.17392269866383C580.5151676898887 418.08960470870915 570.757591661606 378.9007399851189 604.9091077605954 386.5848311073915C639.0606238595848 394.2689222296641 629.303047831302 441.10528716542086 663.4545639302913 437.519377975027C697.6060800292806 433.9334687846331 704.9242620504925 392.7321040052096 722.0000200999873 374.2902853117554 "
            transform="rotate(10.5, 400, 400)"></path>
        <path
            d="M101.0000020738082 406.29851688230946C116.85606311976753 397.7362439174914 123.6515178537501 374.8015841903003 155.36363994566872 376.9421524315048C187.07576203758737 379.0827206727093 178.0151557256106 414.8268125734576 209.72727781752923 413.6376079950106C241.43939990944787 412.4484034165637 232.37879359747112 369.29726585577436 264.09091568938976 372.8648795911152C295.80303778130843 376.43249332645604 286.7424314693317 425.6315856004898 318.45455356125024 425.8694265161792C350.1666756531689 426.1072674318686 341.1060693411922 372.2532886650568 372.81819143311077 373.68033415919314C404.5303135250294 375.1073796533295 395.46970721305263 433.14056308154056 427.1818293049713 430.76215392464667C458.89395139689 428.3837447677528 449.8333450849132 371.4718113706488 481.54546717683183 365.52578847841403C513.2575892687505 359.5797655861793 504.1969829567737 403.95408499908547 535.9091050486923 410.375789722699C567.6212271406109 416.7974944463125 558.5606208286342 380.40783434583585 590.2727429205529 387.54306181651754C621.9848650124716 394.6782892871993 612.9242587004948 438.16919958468765 644.6363807924134 434.8394267650362C676.348502884332 431.50965394538474 683.1439576183145 393.25124379306294 699.0000186642739 376.12669786342684 "
            transform="rotate(9.75, 400, 400)"></path>
        <path
            d="M124.0000019142845 405.8140050198932C138.6363659567085 397.91036843698424 144.9090934034616 376.73991330419244 174.1818214883096 378.71582244991964C203.45454957315758 380.6917315956469 195.0909129774867 413.6862779655684 224.3636410623347 412.5885506623866C253.63636914718265 411.4908233592048 245.2727325515118 371.6590040723224 274.5454606363598 374.9521859818678C303.8181887212078 378.2453678914132 295.4545521255369 423.6599146059059 324.7272802103849 423.87946006654226C354.0000082952328 424.0990055271786 345.636371699562 374.38764051166 374.90909978440993 375.70491327547813C404.1818278692579 377.0221860392963 395.8181912735871 430.5912784345681 425.09091935843503 428.39582382820447C454.363647443283 426.2003692218409 446.0000108476122 373.6662768552834 475.2727389324602 368.17764033937436C504.5454670173081 362.6890038234654 496.18183042163724 403.64991405076336 525.4545585064852 409.5776414879451C554.7272865913333 415.5053689251268 546.3636499956624 381.91491344776375 575.6363780805104 388.5012772668546C604.9091061653584 395.08764108594534 596.5454695696874 435.2330967451654 625.8181976545354 432.1594602962564C655.0909257393834 429.08582384734734 661.3636531861365 393.7703683221272 676.0000172285605 377.9630951563093 "
            transform="rotate(9, 400, 400)"></path>
        <path
            d="M146.9999864959717 405.3295065089174C160.4166535348604 398.08450630791754 166.16665369438408 378.67825576952504 192.9999877721614 380.489505819775C219.8333218499387 382.30075587002494 212.16665497057375 412.54575670911964 238.99998904835104 411.539506681203C265.8333231261284 410.53325665328634 258.1666562467634 374.0207556403108 284.9999903245407 377.03950572406075C311.83332440231806 380.0582558078107 304.16665752295313 421.68825696276235 330.9999916007304 421.8895069683457C357.83332567850766 422.090756973929 350.1666587991428 376.52200570970365 376.99999287692003 377.7295057432036C403.8333269546973 378.9370057767036 396.1666600753324 428.04200713903606 422.99999415310975 426.02950708320276C449.83332823088705 424.01700702736946 442.1666613515221 375.8607556913584 468.9999954292994 370.8295055517751C495.8333295070767 365.7982554121919 488.16666262771173 403.34575645388173 514.9999967054891 408.77950660463165C541.8333307832664 414.2132567553815 534.1666639039015 383.4220059011321 560.9999979816788 389.459506068632C587.8333320594561 395.4970062361319 580.1666651800911 432.2970072570836 606.9999992578685 429.479507178917C633.8333333356458 426.6620071007504 639.5833334951694 394.2895062026319 653.000000534058 379.7995058006321 "
            transform="rotate(8.25, 400, 400)"></path>
        <path
            d="M169.99998633644802 404.8450099052902C182.19695637180135 398.25864608619946 187.4242292440956 380.61660014220627 211.81816931480228 382.26319109697897C236.2121093855089 383.9097820517516 229.24241222244984 411.40523736001956 253.6363522931565 410.49046460736804C278.03029236386317 409.5756918547166 271.06059520080413 376.3825091156479 295.45453527151074 379.1268273736024C319.8484753422174 381.8711456315569 312.8787781791584 419.71660122696744 337.272718249865 419.89955577749777C361.6666583205716 420.08251032802804 354.69696115751265 378.6563728150959 379.0909012282192 379.7541001182777C403.48484129892586 380.8518274214595 396.5151441358669 425.49273775085265 420.90908420657354 423.6631922455497C445.30302427728014 421.83364674024665 438.3333271142211 378.05523643478205 462.7272671849277 373.4813726715246C487.1212072556344 368.90750890826706 480.1515100925753 403.0416007643487 504.54545016328194 407.9813736286668C528.9393902339887 412.9211464929849 521.9696930709297 384.92910026184904 546.3636331416362 390.417736777758C570.757573212343 395.906373293667 563.7878760492838 429.3609196763504 588.1818161199906 426.7995559689262C612.5757561906971 424.23819226150204 617.8030290629913 394.8086459904852 629.9999990983447 381.63591835230363 "
            transform="rotate(7.5, 400, 400)"></path>
        <path
            d="M192.99998617692432 404.3605094869658C203.97725920874228 398.43278204978407 208.68180479380715 382.55494070019023 230.63635085744312 384.03687255948563C252.5908969210791 385.5188044187811 246.31816947432597 410.2647141962222 268.272715537962 409.44141871883585C290.22726160159795 408.6181232414495 283.9545341548448 378.74425877628767 305.90908021848077 381.2141452084467C327.8636262821168 383.6840316406058 321.59089883536365 417.7449416764753 343.54544489899956 417.90960077195257C365.4999909626356 418.0742598674298 359.22726351588244 380.79073610579087 381.18180957951836 381.7786906786545C403.1363556431544 382.7666452515181 396.86362819640124 422.943464547972 418.8181742600372 421.2968735931993C440.77272032367324 419.6502826384266 434.4999928769201 380.2497133635084 456.45453894055606 376.1332359765767C478.40908500419204 372.01675858964495 472.1363575574389 402.73744126011843 494.09090362107486 407.1832368380047C516.0454496847108 411.629032415891 509.77272223795774 386.43619080786874 531.7272683015938 391.3759636721868C553.6818143652297 396.3157365365049 547.4090869184765 426.42482828091994 569.3636329821124 424.1196009442382C591.3181790457485 421.8143736075564 596.0227246308134 395.3277819636413 606.9999976626314 383.4723270892779 "
            transform="rotate(6.75, 400, 400)"></path>
        <path
            d="M215.9999860174006 403.87600716129276C225.75756204568324 398.6069161060201 229.93938034351868 384.49327935082556 249.45453240008402 385.8105521146437C268.9696844566493 387.12782487846187 263.3939267262021 409.1241891250762 282.9090787827674 408.392370922955C302.4242308393327 407.6605527208338 296.84847310888546 381.10600652957885 316.3636251654508 383.3014611359425C335.87877722201614 385.49691574230604 330.3030194915689 415.7732802186345 349.8181715481342 415.91964385905874C369.3333236046995 416.066007499483 363.7575658742523 382.9250974891373 383.2727179308176 383.8032793316827C402.78786998738286 384.68146117422816 397.21211225693565 420.3941894377427 416.727264313501 418.93055303350025C436.2424163700663 417.46691662925787 430.6666586396191 382.44418838488616 450.18181069618436 378.7850973742802C469.69696275274976 375.1260063636742 464.12120502230243 402.43327984853954 483.6363570788678 406.385098139994C503.15150913543306 410.33691643144846 497.57575140498585 387.94327944653975 517.0909034615512 392.33418865926694C536.6060555181166 396.7250978719942 531.0302977876693 423.4887349781409 550.5454498442346 421.43964401220154C570.0606019007998 419.39055304626214 574.2424201986353 395.8469160294487 583.9999962269179 385.30873391890344 "
            transform="rotate(6, 400, 400)"></path>
        <path
            d="M238.99998585787688 403.3915067429683C247.5378648826242 398.78105206960475 251.1969558932302 386.4316199088095 268.27271394272486 387.58423357715037C285.3484719922195 388.7368472454913 280.4696839780782 407.9836659612788 297.54544202757285 407.3433250344228C314.6212000770675 406.70298410756675 309.7424120629262 383.46775619021867 326.81817011242083 385.3887789707868C343.8939281619155 387.30980175135494 339.01514014777416 413.8016206681424 356.09089819726876 413.9296888535136C373.1666562467634 414.0577570388848 368.2878682326221 385.05946077983225 385.36362628211674 385.82786989205954C402.4393843316114 386.59627900428677 397.5605963174701 417.844916234862 414.6363543669647 416.5642343811499C431.7121124164594 415.2835525274378 426.83332440231806 384.6386653136126 443.9090824518127 381.43696067933234C460.9848405013073 378.2352560450521 456.10605248716604 402.12912034430923 473.1818105366607 405.5869613493319C490.2575685861553 409.04480235435454 485.37878057201397 389.45036999255944 502.4545386215086 393.2924155536958C519.5302966710033 397.13446111483205 514.651508656862 420.5526435827104 531.7272667063567 418.75968898751347C548.8030247558513 416.96673439231654 552.4621157664571 396.3660520026048 560.9999947912046 387.1451426558777 "
            transform="rotate(5.25, 400, 400)"></path>
        <path
            d="M261.99998569835316 402.9070063246439C269.31816771956517 398.9551880331894 272.45453144294174 388.3699604667935 287.09089548536576 389.3579150396571C301.7272595277897 390.3458696125207 297.5454412299543 406.84314279748145 312.18180527237826 406.2942791458906C326.8181693148023 405.74541549429966 322.63635101696684 385.8295058508585 337.27271505939086 387.47609680563113C351.9090791018148 389.12268776040384 347.7272608039794 411.8299611176502 362.36362484640335 411.9397338479684C376.9999888888274 412.0495065782866 372.81817059099194 387.1938240705273 387.4545346334159 387.85246045243633C402.09089867583987 388.51109683434544 397.9090803780045 415.2956430319813 412.54544442042845 414.1979157287995C427.1818084628525 413.1001884256177 422.99999016501704 386.83314224233897 437.63635420744106 384.0888239843845C452.27271824986497 381.34450572643 448.09089995202953 401.824960840079 462.72726399445355 404.78882455866983C477.36362803687757 407.7526882772607 473.18180973904214 390.95746053857914 487.81817378146616 394.25064244812455C502.4545378238901 397.54382435766996 498.27271952605463 417.61655218728 512.9090835684786 416.07973396282546C527.5454476109026 414.54291573837094 530.6818113342792 396.88518797576086 537.9999933554911 388.9815513928519 "
            transform="rotate(4.5, 400, 400)"></path>
        <path
            d="M285.00000079761855 402.42250209162216C291.0984858152952 399.12932018207675 293.71212225144234 390.3082972100802 305.90909228679567 391.13159268746654C318.106062322149 391.9548881648529 314.62121374061945 405.7026158189868 326.8181837759728 405.24522944266107C339.0151538113261 404.7878430663353 335.53030522979657 388.191251696801 347.7272752651499 389.56341082577825C359.92424530050323 390.93556995475547 356.43939671897374 409.85829775246077 368.636366754327 409.94977502772593C380.83333678968035 410.0412523029911 377.34848820815085 389.328183546525 389.54545824350413 389.8770471981159C401.74242827885746 390.4259108497068 398.25757969732797 412.74636601440335 410.4545497326813 411.8315932617519C422.65151976803463 410.9168205091004 419.1666711865051 389.0276153563681 431.3636412218584 386.74068347473934C443.5606112572117 384.4537515931106 440.0757626756822 401.5207975211514 452.2727327110355 403.99068395331045C464.46970274638886 406.4605703854695 460.98485416485937 392.4645472699016 473.18182420021265 395.20886552785606C485.37879423556603 397.95318378581055 481.89394565403643 414.68045697715223 494.0909156893898 413.3997751234402C506.2878857247431 412.11909326972807 508.9015221608902 397.4043201342197 515.0000071785669 390.81795631512887 "
            transform="rotate(3.75, 400, 400)"></path>
        <path
            d="M308.00000063809483 401.9380016732977C312.87878865223615 399.3034561456614 314.96969780115387 392.24663776806415 324.7272738294365 392.9052741499732C334.48484985771915 393.5639105318823 331.6969709924956 404.5620926551895 341.45454702077825 404.1961835541289C351.2121230490609 403.8302744530683 348.42424418383723 390.5530013574408 358.18182021211993 391.6507286606226C367.93939624040263 392.7484559638044 365.15151737517897 407.88663820196865 374.9090934034616 407.95982002218074C384.66666943174425 408.0330018423929 381.8787905665207 391.46254683722 391.63636659480335 391.9016377584927C401.393942623086 392.34072867976545 398.60606375786233 410.1970928115227 408.36363978614503 409.4652746094015C418.12121581442767 408.7334564072803 415.33333694920407 391.22209228509445 425.0909129774867 389.3925467797915C434.8484890057694 387.56300127448844 432.06061014054575 401.21663801692114 441.81818616882845 403.19254716264834C451.5757621971111 405.1684563083756 448.78788333188743 393.97163781592127 458.5454593601701 396.16709242228484C468.3030353884528 398.36254702864846 465.51515652322917 411.7443655817218 475.2727325515118 410.7198200987521C485.03030857979445 409.69527461578247 487.12121772871217 397.9234561073757 492.0000057428535 392.6543650521031 "
            transform="rotate(3, 400, 400)"></path>
        <path
            d="M331.0000004785711 401.4535012549733C334.6590914891771 399.4775921092461 336.2272733508654 394.1849783260481 343.5454553720774 394.6789556124799C350.8636373932894 395.1729328989117 348.7727282443717 403.4215694913921 356.09091026558366 403.14713766559663C363.40909228679567 402.8727058398012 361.31818313787795 392.9147510180806 368.63636515908996 393.73804649546696C375.9545471803019 394.5613419728533 373.8636380313842 405.9149786514765 381.1818200525962 405.96986501663554C388.5000020738082 406.02475138179466 386.4090929248905 393.596910127915 393.7272749461025 393.92622831886956C401.04545696731446 394.25554650982406 398.9545478183968 407.647819608642 406.27272983960876 407.09895595705115C413.59091186082077 406.5500923054602 411.50000271190305 393.4165692138208 418.81818473311506 392.0444100848436C426.136366754327 390.67225095586633 424.0454576054093 400.9124785126908 431.3636396266213 402.3944103719863C438.6818216478333 403.8763422312817 436.5909124989156 395.47872836194097 443.9090945201276 397.1253193167136C451.2272765413396 398.7719102714863 449.13636739242185 408.8082741862913 456.45454941363386 408.0398650740641C463.7727314348458 407.2714559618368 465.34091329653415 398.44259208053177 469.0000043071401 394.4907737890773 "
            transform="rotate(2.25, 400, 400)"></path>
        <path
            d="M353.9999965043502 400.9690017903232C356.4393905114208 399.65172902650505 357.48484508587967 396.1233198377064 362.363633100021 396.45263802866094C367.2424211141623 396.7819562196155 365.84848168155054 402.281047281269 370.72726969569186 402.09809273073876C375.6060577098332 401.91513818020843 374.21211827722135 395.2765016323947 379.09090629136267 395.8253652839856C383.96969430550405 396.3742289355765 382.5757548728922 403.9433200546586 387.45454288703354 403.9799109647647C392.33333090117486 404.01650187487076 390.9393914685631 395.7312743722843 395.8181794827044 395.9508198329207C400.69696749684573 396.17036529355704 399.3030280642339 405.09854735943566 404.1818160783753 404.73263825837506C409.06060409251654 404.36672915731447 407.66666465990477 395.61104709622157 412.5454526740461 394.69627434357005C417.4242406881874 393.78150159091854 416.03030125557564 400.6083199621349 420.90908926971696 401.5962745349985C425.7878772838583 402.58422910786214 424.39393785124645 396.9858198616349 429.27272586538777 398.08354716481676C434.15151387952915 399.18127446799855 432.7575744469173 405.8721837445352 437.63636246105864 405.3599110030504C442.51515047519996 404.8476382615655 443.5606050496588 398.9617290073622 445.9999990567295 396.3271834797259 "
            transform="rotate(1.5, 400, 400)"></path>
        <path
            d="M377.0000001595237 400.48450137199876C378.21969716305904 399.82586499008966 378.74242445028847 398.06166039569035 381.1818184573591 398.2263194911676C383.6212124644298 398.3909785866449 382.9242427481239 401.14052411747167 385.36363675519453 401.0490468422065C387.8030307622652 400.9575695669414 387.10606104595934 397.6382512930345 389.54545505302997 397.91268311883C391.98484906010066 398.1871149446254 391.28787934379477 401.9716605041665 393.7272733508654 401.9899559592195C396.16666735793603 402.00825141427254 395.4696976416302 397.86563766297934 397.90909164870084 397.97541039329747C400.34848565577147 398.08518312361565 399.6515159394656 402.549274156555 402.09090994653627 402.3663196060247C404.5303039536069 402.1833650554944 403.833334237301 397.80552402494794 406.2727282443717 397.3481376486222C408.71212225144234 396.8907512722964 408.01515253513645 400.3041604579046 410.45454654220714 400.79813774433643C412.8939405492778 401.29211503076823 412.19697083297183 398.4929104076546 414.6363648400425 399.04177405924554C417.0757588471132 399.5906377108364 416.37878913080726 402.9360923491048 418.81818313787795 402.67995597836233C421.25757714494864 402.4238196076199 421.780304432178 399.4808649805183 423.0000014357134 398.16359221670007 "
            transform="rotate(0.75, 400, 400)"></path>
    </g>
</svg>